<svg width="16" height="18" viewBox="0 0 16 18" fill="#54687D" xmlns="http://www.w3.org/2000/svg">
<path d="M14.5 9C14.5 6.6875 13.25 4.5625 11.25 3.375C9.21875 2.21875 6.75 2.21875 4.75 3.375C2.71875 4.5625 1.5 6.6875 1.5 9C1.5 11.3438 2.71875 13.4688 4.75 14.6562C6.75 15.8125 9.21875 15.8125 11.25 14.6562C13.25 13.4688 14.5 11.3438 14.5 9ZM0 9C0 6.15625 1.5 3.53125 4 2.09375C6.46875 0.65625 9.5 0.65625 12 2.09375C14.4688 3.53125 16 6.15625 16 9C16 11.875 14.4688 14.5 12 15.9375C9.5 17.375 6.46875 17.375 4 15.9375C1.5 14.5 0 11.875 0 9ZM11.1875 6.71875L8.5625 12.8438C8.4375 13.0938 8.1875 13.25 7.9375 13.25C7.875 13.25 7.84375 13.25 7.78125 13.25C7.46875 13.1875 7.25 12.9062 7.25 12.5625V9.75H4.4375C4.09375 9.75 3.8125 9.53125 3.75 9.21875C3.6875 8.90625 3.84375 8.5625 4.15625 8.4375L10.2812 5.8125C10.5312 5.71875 10.8438 5.78125 11.0312 5.96875C11.25 6.15625 11.2812 6.46875 11.1875 6.71875Z"/>
</svg>
