<svg width="16" height="16" fill="#54687D" viewBox="0 0 16 16" xmlns="http://www.w3.org/2000/svg">
<path d="M12 1.5H3C2.71875 1.5 2.5 1.75 2.5 2V14C2.5 14.2812 2.71875 14.5 3 14.5H12C12.25 14.5 12.5 14.2812 12.5 14V2C12.5 1.75 12.25 1.5 12 1.5ZM3 0H12C13.0938 0 14 0.90625 14 2V14C14 15.125 13.0938 16 12 16H3C1.875 16 1 15.125 1 14V2C1 0.90625 1.875 0 3 0ZM7.5 8C6.78125 8 6.125 7.625 5.75 7C5.40625 6.40625 5.40625 5.625 5.75 5C6.125 4.40625 6.78125 4 7.5 4C8.1875 4 8.84375 4.40625 9.21875 5C9.5625 5.625 9.5625 6.40625 9.21875 7C8.84375 7.625 8.1875 8 7.5 8ZM6.5 9H8.5C9.875 9 11 10.125 11 11.5C11 11.7812 10.75 12 10.5 12H4.5C4.21875 12 4 11.7812 4 11.5C4 10.125 5.09375 9 6.5 9ZM16 2.5V4.5C16 4.78125 15.75 5 15.5 5C15.2188 5 15 4.78125 15 4.5V2.5C15 2.25 15.2188 2 15.5 2C15.75 2 16 2.25 16 2.5ZM15.5 6C15.75 6 16 6.25 16 6.5V8.5C16 8.78125 15.75 9 15.5 9C15.2188 9 15 8.78125 15 8.5V6.5C15 6.25 15.2188 6 15.5 6ZM16 10.5V12.5C16 12.7812 15.75 13 15.5 13C15.2188 13 15 12.7812 15 12.5V10.5C15 10.25 15.2188 10 15.5 10C15.75 10 16 10.25 16 10.5Z"/>
</svg>
