<svg width="16" height="16" fill="#54687D" viewBox="0 0 16 16" xmlns="http://www.w3.org/2000/svg">
<path d="M2.5 2.5V7.5H5.5V2.5H2.5ZM1 2.5C1 1.6875 1.65625 1 2.5 1H5.5C6.3125 1 7 1.6875 7 2.5V7.5C7 8.34375 6.3125 9 5.5 9H2.5C1.65625 9 1 8.34375 1 7.5V2.5ZM10.5 8.5V13.5H13.5V8.5H10.5ZM9 8.5C9 7.6875 9.65625 7 10.5 7H13.5C14.3125 7 15 7.6875 15 8.5V13.5C15 14.3438 14.3125 15 13.5 15H10.5C9.65625 15 9 14.3438 9 13.5V8.5ZM5.5 11.5H2.5V13.5H5.5V11.5ZM2.5 10H5.5C6.3125 10 7 10.6875 7 11.5V13.5C7 14.3438 6.3125 15 5.5 15H2.5C1.65625 15 1 14.3438 1 13.5V11.5C1 10.6875 1.65625 10 2.5 10ZM10.5 2.5V4.5H13.5V2.5H10.5ZM9 2.5C9 1.6875 9.65625 1 10.5 1H13.5C14.3125 1 15 1.6875 15 2.5V4.5C15 5.34375 14.3125 6 13.5 6H10.5C9.65625 6 9 5.34375 9 4.5V2.5Z"/>
</svg>
