<svg width="16" height="16" viewBox="0 0 20 16" fill="#54687D" xmlns="http://www.w3.org/2000/svg">
<path d="M2 1.5C1.71875 1.5 1.5 1.75 1.5 2V11C1.5 11.2812 1.71875 11.5 2 11.5H2.375C2.90625 10.625 3.875 10 5 10C6.09375 10 7.0625 10.625 7.59375 11.5H10H11C11.25 11.5 11.5 11.2812 11.5 11V2C11.5 1.75 11.25 1.5 11 1.5H2ZM15 16C13.3438 16 12 14.6562 12 13H11.75H11H10H8C8 14.6562 6.65625 16 5 16C3.34375 16 2 14.6562 2 13C0.875 13 0 12.125 0 11V2C0 0.90625 0.875 0 2 0H11C12.0938 0 13 0.90625 13 2V3H14.3125C14.7812 3 15.2188 3.1875 15.5625 3.53125L18.4688 6.4375C18.8125 6.78125 19 7.21875 19 7.6875V11.5H19.25C19.6562 11.5 20 11.8438 20 12.25C20 12.6875 19.6562 13 19.25 13H18C18 14.6562 16.6562 16 15 16ZM17.4375 7.5C17.4062 7.5 17.4062 7.5 17.4062 7.5L14.5 4.59375C14.4375 4.53125 14.375 4.5 14.3125 4.5H13V7.5H17.4375ZM5 14.5C5.53125 14.5 6 14.2188 6.28125 13.75C6.5625 13.3125 6.5625 12.7188 6.28125 12.25C6 11.8125 5.53125 11.5 5 11.5C4.4375 11.5 3.96875 11.8125 3.6875 12.25C3.40625 12.7188 3.40625 13.3125 3.6875 13.75C3.96875 14.2188 4.4375 14.5 5 14.5ZM16.5 13C16.5 12.4688 16.1875 12 15.75 11.7188C15.2812 11.4375 14.6875 11.4375 14.25 11.7188C13.7812 12 13.5 12.4688 13.5 13C13.5 13.5625 13.7812 14.0312 14.25 14.3125C14.6875 14.5938 15.2812 14.5938 15.75 14.3125C16.1875 14.0312 16.5 13.5625 16.5 13ZM3 6C3 4.75 3.65625 3.625 4.75 3C5.8125 2.34375 7.15625 2.34375 8.25 3C9.3125 3.625 10 4.75 10 6C10 7.28125 9.3125 8.40625 8.25 9.03125C7.15625 9.6875 5.8125 9.6875 4.75 9.03125C3.65625 8.40625 3 7.28125 3 6ZM6.5 4C6.21875 4 6 4.25 6 4.5V6C6 6.28125 6.21875 6.5 6.5 6.5H7.5C7.75 6.5 8 6.28125 8 6C8 5.75 7.75 5.5 7.5 5.5H7V4.5C7 4.25 6.75 4 6.5 4Z"/>
</svg>
