<svg width="18" height="16" viewBox="0 0 18 16" fill="#54687D" xmlns="http://www.w3.org/2000/svg">
<path d="M12 1.5H10.25V3.5C10.25 3.78125 10 4 9.75 4H8.25C7.96875 4 7.75 3.78125 7.75 3.5V1.5H6C5.71875 1.5 5.5 1.75 5.5 2V6H4V2C4 0.90625 4.875 0 6 0H12C13.0938 0 14 0.90625 14 2V6H12.5V2C12.5 1.75 12.25 1.5 12 1.5ZM10.2188 16C10.5938 15.5938 10.8438 15.0938 10.9375 14.5H16C16.25 14.5 16.5 14.2812 16.5 14V9C16.5 8.75 16.25 8.5 16 8.5H14.25V10.5C14.25 10.7812 14 11 13.75 11H12.25C11.9688 11 11.75 10.7812 11.75 10.5V8.5H10.9375C10.8438 7.9375 10.5938 7.4375 10.2188 7H16C17.0938 7 18 7.90625 18 9V14C18 15.125 17.0938 16 16 16H10.2188ZM8 8.5H6.25V10.5C6.25 10.7812 6 11 5.75 11H4.25C3.96875 11 3.75 10.7812 3.75 10.5V8.5H2C1.71875 8.5 1.5 8.75 1.5 9V14C1.5 14.2812 1.71875 14.5 2 14.5H8C8.25 14.5 8.5 14.2812 8.5 14V9C8.5 8.75 8.25 8.5 8 8.5ZM2 7H8C9.09375 7 10 7.90625 10 9V14C10 15.125 9.09375 16 8 16H2C0.875 16 0 15.125 0 14V9C0 7.90625 0.875 7 2 7Z"/>
</svg>
