<svg width="378" height="451" viewBox="0 0 378 451" fill="none" xmlns="http://www.w3.org/2000/svg">
<g clip-path="url(#clip0_15_2636)">
<rect width="378" height="91" fill="white"/>
<path d="M29.3722 39H25.429V27.3636H29.4517C30.607 27.3636 31.5994 27.5966 32.429 28.0625C33.2623 28.5246 33.9025 29.1894 34.3494 30.0568C34.7964 30.9242 35.0199 31.9621 35.0199 33.1705C35.0199 34.3826 34.7945 35.4242 34.3438 36.2955C33.8968 37.1667 33.2509 37.8352 32.4062 38.3011C31.5653 38.767 30.554 39 29.3722 39ZM27.5369 37.1761H29.2699C30.0805 37.1761 30.7566 37.0284 31.2983 36.733C31.84 36.4337 32.2472 35.9886 32.5199 35.3977C32.7926 34.803 32.929 34.0606 32.929 33.1705C32.929 32.2803 32.7926 31.5417 32.5199 30.9545C32.2472 30.3636 31.8438 29.9223 31.3097 29.6307C30.7794 29.3352 30.1203 29.1875 29.3324 29.1875H27.5369V37.1761ZM39.4432 39.1761C38.8902 39.1761 38.392 39.0777 37.9489 38.8807C37.5095 38.6799 37.161 38.3845 36.9034 37.9943C36.6496 37.6042 36.5227 37.1231 36.5227 36.5511C36.5227 36.0587 36.6136 35.6515 36.7955 35.3295C36.9773 35.0076 37.2254 34.75 37.5398 34.5568C37.8542 34.3636 38.2083 34.2178 38.6023 34.1193C39 34.017 39.411 33.9432 39.8352 33.8977C40.3466 33.8447 40.7614 33.7973 41.0795 33.7557C41.3977 33.7102 41.6288 33.642 41.7727 33.5511C41.9205 33.4564 41.9943 33.3106 41.9943 33.1136V33.0795C41.9943 32.6515 41.8674 32.3201 41.6136 32.0852C41.3598 31.8504 40.9943 31.733 40.517 31.733C40.0133 31.733 39.6136 31.8428 39.3182 32.0625C39.0265 32.2822 38.8295 32.5417 38.7273 32.8409L36.8068 32.5682C36.9583 32.0379 37.2083 31.5947 37.5568 31.2386C37.9053 30.8788 38.3314 30.6098 38.8352 30.4318C39.339 30.25 39.8958 30.1591 40.5057 30.1591C40.9261 30.1591 41.3447 30.2083 41.7614 30.3068C42.178 30.4053 42.5587 30.5682 42.9034 30.7955C43.2481 31.0189 43.5246 31.3239 43.733 31.7102C43.9451 32.0966 44.0511 32.5795 44.0511 33.1591V39H42.0739V37.8011H42.0057C41.8807 38.0436 41.7045 38.2708 41.4773 38.483C41.2538 38.6913 40.9716 38.8598 40.6307 38.9886C40.2936 39.1136 39.8977 39.1761 39.4432 39.1761ZM39.9773 37.6648C40.3902 37.6648 40.7481 37.5833 41.0511 37.4205C41.3542 37.2538 41.5871 37.0341 41.75 36.7614C41.9167 36.4886 42 36.1913 42 35.8693V34.8409C41.9356 34.8939 41.8258 34.9432 41.6705 34.9886C41.5189 35.0341 41.3485 35.0739 41.1591 35.108C40.9697 35.142 40.7822 35.1723 40.5966 35.1989C40.411 35.2254 40.25 35.2481 40.1136 35.267C39.8068 35.3087 39.5322 35.3769 39.2898 35.4716C39.0473 35.5663 38.8561 35.6989 38.7159 35.8693C38.5758 36.036 38.5057 36.2519 38.5057 36.517C38.5057 36.8958 38.6439 37.1818 38.9205 37.375C39.197 37.5682 39.5492 37.6648 39.9773 37.6648ZM49.9261 39.1705C49.0549 39.1705 48.3068 38.9792 47.6818 38.5966C47.0606 38.214 46.5814 37.6856 46.2443 37.0114C45.911 36.3333 45.7443 35.553 45.7443 34.6705C45.7443 33.7841 45.9148 33.0019 46.2557 32.3239C46.5966 31.642 47.0777 31.1117 47.6989 30.733C48.3239 30.3504 49.0625 30.1591 49.9148 30.1591C50.6231 30.1591 51.25 30.2898 51.7955 30.5511C52.3447 30.8087 52.7822 31.1742 53.108 31.6477C53.4337 32.1174 53.6193 32.6667 53.6648 33.2955H51.6989C51.6193 32.875 51.4299 32.5246 51.1307 32.2443C50.8352 31.9602 50.4394 31.8182 49.9432 31.8182C49.5227 31.8182 49.1534 31.9318 48.8352 32.1591C48.517 32.3826 48.2689 32.7045 48.0909 33.125C47.9167 33.5455 47.8295 34.0492 47.8295 34.6364C47.8295 35.2311 47.9167 35.7424 48.0909 36.1705C48.2652 36.5947 48.5095 36.9223 48.8239 37.1534C49.142 37.3807 49.5152 37.4943 49.9432 37.4943C50.2462 37.4943 50.517 37.4375 50.7557 37.3239C50.9981 37.2064 51.2008 37.0379 51.3636 36.8182C51.5265 36.5985 51.6383 36.3314 51.6989 36.017H53.6648C53.6155 36.6345 53.4337 37.1818 53.1193 37.6591C52.8049 38.1326 52.3769 38.5038 51.8352 38.7727C51.2936 39.0379 50.6572 39.1705 49.9261 39.1705ZM57.4105 33.8864V39H55.3537V27.3636H57.3651V31.7557H57.4673C57.6719 31.2633 57.9882 30.875 58.4162 30.5909C58.848 30.303 59.3973 30.1591 60.0639 30.1591C60.67 30.1591 61.1984 30.286 61.6491 30.5398C62.0999 30.7936 62.4484 31.1648 62.6946 31.6534C62.9446 32.142 63.0696 32.7386 63.0696 33.4432V39H61.0128V33.7614C61.0128 33.1742 60.8613 32.7178 60.5582 32.392C60.259 32.0625 59.8385 31.8977 59.2969 31.8977C58.9332 31.8977 58.6075 31.9773 58.3196 32.1364C58.0355 32.2917 57.812 32.517 57.6491 32.8125C57.4901 33.108 57.4105 33.4659 57.4105 33.8864ZM72.0639 32.5795L70.1889 32.7841C70.1359 32.5947 70.0431 32.4167 69.9105 32.25C69.7817 32.0833 69.6075 31.9489 69.3878 31.8466C69.1681 31.7443 68.8991 31.6932 68.581 31.6932C68.1529 31.6932 67.7931 31.786 67.5014 31.9716C67.2135 32.1572 67.0715 32.3977 67.0753 32.6932C67.0715 32.947 67.1643 33.1534 67.3537 33.3125C67.5469 33.4716 67.8651 33.6023 68.3082 33.7045L69.7969 34.0227C70.6226 34.2008 71.2363 34.483 71.6378 34.8693C72.0431 35.2557 72.2476 35.7614 72.2514 36.3864C72.2476 36.9356 72.0866 37.4205 71.7685 37.8409C71.4541 38.2576 71.0166 38.5833 70.456 38.8182C69.8954 39.053 69.2514 39.1705 68.5241 39.1705C67.456 39.1705 66.5961 38.947 65.9446 38.5C65.2931 38.0492 64.9048 37.4223 64.7798 36.6193L66.7855 36.4261C66.8764 36.8201 67.0696 37.1174 67.3651 37.3182C67.6605 37.5189 68.045 37.6193 68.5185 37.6193C69.0071 37.6193 69.3991 37.5189 69.6946 37.3182C69.9938 37.1174 70.1435 36.8693 70.1435 36.5739C70.1435 36.3239 70.0469 36.1174 69.8537 35.9545C69.6643 35.7917 69.3688 35.6667 68.9673 35.5795L67.4787 35.267C66.6416 35.0928 66.0223 34.7992 65.6207 34.3864C65.2192 33.9697 65.0204 33.4432 65.0241 32.8068C65.0204 32.2689 65.1662 31.803 65.4616 31.4091C65.7609 31.0114 66.1757 30.7045 66.706 30.4886C67.2401 30.2689 67.8556 30.1591 68.5526 30.1591C69.5753 30.1591 70.3802 30.3769 70.9673 30.8125C71.5582 31.2481 71.9238 31.8371 72.0639 32.5795ZM77.8111 39.1705C76.9361 39.1705 76.1804 38.9886 75.544 38.625C74.9115 38.2576 74.4247 37.7386 74.0838 37.0682C73.7429 36.3939 73.5724 35.6004 73.5724 34.6875C73.5724 33.7898 73.7429 33.0019 74.0838 32.3239C74.4285 31.642 74.9096 31.1117 75.527 30.733C76.1444 30.3504 76.8698 30.1591 77.7031 30.1591C78.241 30.1591 78.7486 30.2462 79.2259 30.4205C79.7069 30.5909 80.1312 30.8561 80.4986 31.2159C80.8698 31.5758 81.1615 32.0341 81.3736 32.5909C81.5857 33.1439 81.6918 33.803 81.6918 34.5682V35.1989H74.5384V33.8125H79.7202C79.7164 33.4186 79.6312 33.0682 79.4645 32.7614C79.2978 32.4508 79.0649 32.2064 78.7656 32.0284C78.4702 31.8504 78.1255 31.7614 77.7315 31.7614C77.3111 31.7614 76.9418 31.8636 76.6236 32.0682C76.3054 32.2689 76.0573 32.5341 75.8793 32.8636C75.705 33.1894 75.616 33.5473 75.6122 33.9375V35.1477C75.6122 35.6553 75.705 36.0909 75.8906 36.4545C76.0762 36.8144 76.3357 37.0909 76.669 37.2841C77.0024 37.4735 77.3925 37.5682 77.8395 37.5682C78.1387 37.5682 78.4096 37.5265 78.652 37.4432C78.8944 37.3561 79.1046 37.2292 79.2827 37.0625C79.4607 36.8958 79.5952 36.6894 79.6861 36.4432L81.6065 36.6591C81.4853 37.1667 81.2543 37.6098 80.9134 37.9886C80.5762 38.3636 80.1444 38.6553 79.6179 38.8636C79.0914 39.0682 78.4891 39.1705 77.8111 39.1705ZM83.4318 39V30.2727H85.4261V31.7273H85.517C85.6761 31.2235 85.9489 30.8352 86.3352 30.5625C86.7254 30.286 87.1705 30.1477 87.6705 30.1477C87.7841 30.1477 87.911 30.1534 88.0511 30.1648C88.1951 30.1723 88.3144 30.1856 88.4091 30.2045V32.0966C88.322 32.0663 88.1837 32.0398 87.9943 32.017C87.8087 31.9905 87.6288 31.9773 87.4545 31.9773C87.0795 31.9773 86.7424 32.0587 86.4432 32.2216C86.1477 32.3807 85.9148 32.6023 85.7443 32.8864C85.5739 33.1705 85.4886 33.4981 85.4886 33.8693V39H83.4318Z" fill="#24292F"/>
<path d="M28.499 62H25.357V51.8182H28.6382C29.6259 51.8182 30.4711 52.022 31.1737 52.4297C31.8764 52.834 32.415 53.4157 32.7895 54.1747C33.164 54.9304 33.3513 55.8352 33.3513 56.8892C33.3513 57.9498 33.1624 58.8629 32.7845 59.6286C32.4067 60.3909 31.8565 60.9775 31.134 61.3885C30.4114 61.7962 29.5331 62 28.499 62ZM26.5899 60.9062H28.4195C29.2613 60.9062 29.959 60.7438 30.5125 60.419C31.066 60.0942 31.4787 59.6319 31.7504 59.032C32.0222 58.4321 32.1581 57.7178 32.1581 56.8892C32.1581 56.0672 32.0239 55.3596 31.7554 54.7663C31.4869 54.1697 31.0859 53.7124 30.5523 53.3942C30.0187 53.0727 29.3541 52.9119 28.5587 52.9119H26.5899V60.9062ZM35.3586 62H34.066L37.8046 51.8182H39.0773L42.816 62H41.5233L38.4807 53.429H38.4012L35.3586 62ZM35.8358 58.0227H41.0461V59.1165H35.8358V58.0227ZM52.1166 55H50.8836C50.8107 54.6454 50.6831 54.3338 50.5008 54.0653C50.3218 53.7969 50.1031 53.5715 49.8445 53.3892C49.5893 53.2036 49.306 53.0644 48.9944 52.9716C48.6829 52.8788 48.358 52.8324 48.02 52.8324C47.4035 52.8324 46.845 52.9882 46.3445 53.2997C45.8474 53.6113 45.4513 54.0703 45.1563 54.6768C44.8647 55.2834 44.7188 56.0275 44.7188 56.9091C44.7188 57.7907 44.8647 58.5348 45.1563 59.1413C45.4513 59.7479 45.8474 60.2069 46.3445 60.5185C46.845 60.83 47.4035 60.9858 48.02 60.9858C48.358 60.9858 48.6829 60.9394 48.9944 60.8466C49.306 60.7538 49.5893 60.6162 49.8445 60.4339C50.1031 60.2483 50.3218 60.0213 50.5008 59.7528C50.6831 59.4811 50.8107 59.1695 50.8836 58.8182H52.1166C52.0238 59.3385 51.8547 59.8042 51.6095 60.2152C51.3642 60.6262 51.0593 60.9759 50.6947 61.2642C50.3301 61.5492 49.9208 61.7663 49.4667 61.9155C49.016 62.0646 48.5337 62.1392 48.02 62.1392C47.1516 62.1392 46.3794 61.9271 45.7032 61.5028C45.0271 61.0786 44.4951 60.4754 44.1073 59.6932C43.7195 58.911 43.5257 57.983 43.5257 56.9091C43.5257 55.8352 43.7195 54.9072 44.1073 54.125C44.4951 53.3428 45.0271 52.7396 45.7032 52.3153C46.3794 51.8911 47.1516 51.679 48.02 51.679C48.5337 51.679 49.016 51.7536 49.4667 51.9027C49.9208 52.0518 50.3301 52.2706 50.6947 52.5589C51.0593 52.844 51.3642 53.192 51.6095 53.603C51.8547 54.0107 52.0238 54.4763 52.1166 55Z" fill="#54687D"/>
<rect width="378" height="1" transform="translate(0 91)" fill="#D4DBE2"/>
<rect width="378" height="119" transform="translate(0 92)" fill="#ECEFF2"/>
<path d="M35.983 125.182C35.983 126.436 35.7481 127.509 35.2784 128.403C34.8125 129.294 34.1761 129.975 33.3693 130.449C32.5663 130.922 31.6553 131.159 30.6364 131.159C29.6174 131.159 28.7045 130.922 27.8977 130.449C27.0947 129.972 26.4583 129.288 25.9886 128.398C25.5227 127.504 25.2898 126.432 25.2898 125.182C25.2898 123.928 25.5227 122.856 25.9886 121.966C26.4583 121.072 27.0947 120.388 27.8977 119.915C28.7045 119.441 29.6174 119.205 30.6364 119.205C31.6553 119.205 32.5663 119.441 33.3693 119.915C34.1761 120.388 34.8125 121.072 35.2784 121.966C35.7481 122.856 35.983 123.928 35.983 125.182ZM33.8636 125.182C33.8636 124.299 33.7254 123.555 33.4489 122.949C33.1761 122.339 32.7973 121.879 32.3125 121.568C31.8277 121.254 31.2689 121.097 30.6364 121.097C30.0038 121.097 29.4451 121.254 28.9602 121.568C28.4754 121.879 28.0947 122.339 27.8182 122.949C27.5455 123.555 27.4091 124.299 27.4091 125.182C27.4091 126.064 27.5455 126.811 27.8182 127.42C28.0947 128.027 28.4754 128.487 28.9602 128.801C29.4451 129.112 30.0038 129.267 30.6364 129.267C31.2689 129.267 31.8277 129.112 32.3125 128.801C32.7973 128.487 33.1761 128.027 33.4489 127.42C33.7254 126.811 33.8636 126.064 33.8636 125.182ZM39.9418 125.886V131H37.8849V122.273H39.8509V123.756H39.9531C40.1539 123.267 40.474 122.879 40.9134 122.591C41.3565 122.303 41.9039 122.159 42.5554 122.159C43.1577 122.159 43.6823 122.288 44.1293 122.545C44.58 122.803 44.9285 123.176 45.1747 123.665C45.4247 124.153 45.5478 124.746 45.544 125.443V131H43.4872V125.761C43.4872 125.178 43.3357 124.722 43.0327 124.392C42.7334 124.062 42.3187 123.898 41.7884 123.898C41.4285 123.898 41.1084 123.977 40.8281 124.136C40.5516 124.292 40.3338 124.517 40.1747 124.812C40.0194 125.108 39.9418 125.466 39.9418 125.886ZM47.7259 131V119.364H49.7827V123.716H49.8679C49.974 123.504 50.1236 123.278 50.3168 123.04C50.5099 122.797 50.7713 122.591 51.1009 122.42C51.4304 122.246 51.8509 122.159 52.3622 122.159C53.0365 122.159 53.6444 122.331 54.1861 122.676C54.7315 123.017 55.1634 123.523 55.4815 124.193C55.8035 124.86 55.9645 125.678 55.9645 126.648C55.9645 127.606 55.8073 128.42 55.4929 129.091C55.1785 129.761 54.7505 130.273 54.2088 130.625C53.6671 130.977 53.0535 131.153 52.3679 131.153C51.8679 131.153 51.4531 131.07 51.1236 130.903C50.794 130.737 50.5289 130.536 50.3281 130.301C50.1312 130.062 49.9777 129.837 49.8679 129.625H49.7486V131H47.7259ZM49.7429 126.636C49.7429 127.201 49.8224 127.695 49.9815 128.119C50.1444 128.544 50.3774 128.875 50.6804 129.114C50.9872 129.348 51.3584 129.466 51.794 129.466C52.2486 129.466 52.6293 129.345 52.9361 129.102C53.2429 128.856 53.474 128.521 53.6293 128.097C53.7884 127.669 53.8679 127.182 53.8679 126.636C53.8679 126.095 53.7902 125.614 53.6349 125.193C53.4796 124.773 53.2486 124.443 52.9418 124.205C52.6349 123.966 52.2524 123.847 51.794 123.847C51.3546 123.847 50.9815 123.962 50.6747 124.193C50.3679 124.424 50.1349 124.748 49.9759 125.165C49.8205 125.581 49.7429 126.072 49.7429 126.636ZM61.5199 131.17C60.6676 131.17 59.929 130.983 59.304 130.608C58.679 130.233 58.1941 129.708 57.8494 129.034C57.5085 128.36 57.3381 127.572 57.3381 126.67C57.3381 125.769 57.5085 124.979 57.8494 124.301C58.1941 123.623 58.679 123.097 59.304 122.722C59.929 122.347 60.6676 122.159 61.5199 122.159C62.3722 122.159 63.1108 122.347 63.7358 122.722C64.3608 123.097 64.8438 123.623 65.1847 124.301C65.5294 124.979 65.7017 125.769 65.7017 126.67C65.7017 127.572 65.5294 128.36 65.1847 129.034C64.8438 129.708 64.3608 130.233 63.7358 130.608C63.1108 130.983 62.3722 131.17 61.5199 131.17ZM61.5312 129.523C61.9934 129.523 62.3797 129.396 62.6903 129.142C63.0009 128.884 63.232 128.54 63.3835 128.108C63.5388 127.676 63.6165 127.195 63.6165 126.665C63.6165 126.131 63.5388 125.648 63.3835 125.216C63.232 124.78 63.0009 124.434 62.6903 124.176C62.3797 123.919 61.9934 123.79 61.5312 123.79C61.0578 123.79 60.6638 123.919 60.3494 124.176C60.0388 124.434 59.8059 124.78 59.6506 125.216C59.4991 125.648 59.4233 126.131 59.4233 126.665C59.4233 127.195 59.4991 127.676 59.6506 128.108C59.8059 128.54 60.0388 128.884 60.3494 129.142C60.6638 129.396 61.0578 129.523 61.5312 129.523ZM69.9588 131.176C69.4058 131.176 68.9077 131.078 68.4645 130.881C68.0251 130.68 67.6766 130.384 67.419 129.994C67.1652 129.604 67.0384 129.123 67.0384 128.551C67.0384 128.059 67.1293 127.652 67.3111 127.33C67.4929 127.008 67.741 126.75 68.0554 126.557C68.3698 126.364 68.724 126.218 69.1179 126.119C69.5156 126.017 69.9266 125.943 70.3509 125.898C70.8622 125.845 71.277 125.797 71.5952 125.756C71.9134 125.71 72.1444 125.642 72.2884 125.551C72.4361 125.456 72.5099 125.311 72.5099 125.114V125.08C72.5099 124.652 72.383 124.32 72.1293 124.085C71.8755 123.85 71.5099 123.733 71.0327 123.733C70.5289 123.733 70.1293 123.843 69.8338 124.062C69.5421 124.282 69.3452 124.542 69.2429 124.841L67.3224 124.568C67.474 124.038 67.724 123.595 68.0724 123.239C68.4209 122.879 68.8471 122.61 69.3509 122.432C69.8546 122.25 70.4115 122.159 71.0213 122.159C71.4418 122.159 71.8603 122.208 72.277 122.307C72.6937 122.405 73.0743 122.568 73.419 122.795C73.7637 123.019 74.0402 123.324 74.2486 123.71C74.4607 124.097 74.5668 124.58 74.5668 125.159V131H72.5895V129.801H72.5213C72.3963 130.044 72.2202 130.271 71.9929 130.483C71.7694 130.691 71.4872 130.86 71.1463 130.989C70.8092 131.114 70.4134 131.176 69.9588 131.176ZM70.4929 129.665C70.9058 129.665 71.2637 129.583 71.5668 129.42C71.8698 129.254 72.1027 129.034 72.2656 128.761C72.4323 128.489 72.5156 128.191 72.5156 127.869V126.841C72.4512 126.894 72.3414 126.943 72.1861 126.989C72.0346 127.034 71.8641 127.074 71.6747 127.108C71.4853 127.142 71.2978 127.172 71.1122 127.199C70.9266 127.225 70.7656 127.248 70.6293 127.267C70.3224 127.309 70.0478 127.377 69.8054 127.472C69.563 127.566 69.3717 127.699 69.2315 127.869C69.0914 128.036 69.0213 128.252 69.0213 128.517C69.0213 128.896 69.1596 129.182 69.4361 129.375C69.7126 129.568 70.0649 129.665 70.4929 129.665ZM76.6349 131V122.273H78.6293V123.727H78.7202C78.8793 123.223 79.152 122.835 79.5384 122.562C79.9285 122.286 80.3736 122.148 80.8736 122.148C80.9872 122.148 81.1141 122.153 81.2543 122.165C81.3982 122.172 81.5175 122.186 81.6122 122.205V124.097C81.5251 124.066 81.3868 124.04 81.1974 124.017C81.0118 123.991 80.8319 123.977 80.6577 123.977C80.2827 123.977 79.9455 124.059 79.6463 124.222C79.3509 124.381 79.1179 124.602 78.9474 124.886C78.777 125.17 78.6918 125.498 78.6918 125.869V131H76.6349ZM85.858 131.153C85.1723 131.153 84.5587 130.977 84.017 130.625C83.4754 130.273 83.0473 129.761 82.733 129.091C82.4186 128.42 82.2614 127.606 82.2614 126.648C82.2614 125.678 82.4205 124.86 82.7386 124.193C83.0606 123.523 83.4943 123.017 84.0398 122.676C84.5852 122.331 85.1932 122.159 85.8636 122.159C86.375 122.159 86.7955 122.246 87.125 122.42C87.4545 122.591 87.7159 122.797 87.9091 123.04C88.1023 123.278 88.2519 123.504 88.358 123.716H88.4432V119.364H90.5057V131H88.483V129.625H88.358C88.2519 129.837 88.0985 130.062 87.8977 130.301C87.697 130.536 87.4318 130.737 87.1023 130.903C86.7727 131.07 86.358 131.153 85.858 131.153ZM86.4318 129.466C86.8674 129.466 87.2386 129.348 87.5455 129.114C87.8523 128.875 88.0852 128.544 88.2443 128.119C88.4034 127.695 88.483 127.201 88.483 126.636C88.483 126.072 88.4034 125.581 88.2443 125.165C88.089 124.748 87.858 124.424 87.5511 124.193C87.2481 123.962 86.875 123.847 86.4318 123.847C85.9735 123.847 85.5909 123.966 85.2841 124.205C84.9773 124.443 84.7462 124.773 84.5909 125.193C84.4356 125.614 84.358 126.095 84.358 126.636C84.358 127.182 84.4356 127.669 84.5909 128.097C84.75 128.521 84.983 128.856 85.2898 129.102C85.6004 129.345 85.9811 129.466 86.4318 129.466ZM92.6974 131V122.273H94.7543V131H92.6974ZM93.7315 121.034C93.4058 121.034 93.1255 120.926 92.8906 120.71C92.6558 120.491 92.5384 120.227 92.5384 119.92C92.5384 119.61 92.6558 119.347 92.8906 119.131C93.1255 118.911 93.4058 118.801 93.7315 118.801C94.0611 118.801 94.3414 118.911 94.5724 119.131C94.8073 119.347 94.9247 119.61 94.9247 119.92C94.9247 120.227 94.8073 120.491 94.5724 120.71C94.3414 120.926 94.0611 121.034 93.7315 121.034ZM98.9261 125.886V131H96.8693V122.273H98.8352V123.756H98.9375C99.1383 123.267 99.4583 122.879 99.8977 122.591C100.341 122.303 100.888 122.159 101.54 122.159C102.142 122.159 102.667 122.288 103.114 122.545C103.564 122.803 103.913 123.176 104.159 123.665C104.409 124.153 104.532 124.746 104.528 125.443V131H102.472V125.761C102.472 125.178 102.32 124.722 102.017 124.392C101.718 124.062 101.303 123.898 100.773 123.898C100.413 123.898 100.093 123.977 99.8125 124.136C99.536 124.292 99.3182 124.517 99.1591 124.812C99.0038 125.108 98.9261 125.466 98.9261 125.886ZM110.415 134.455C109.676 134.455 109.042 134.354 108.511 134.153C107.981 133.956 107.555 133.691 107.233 133.358C106.911 133.025 106.688 132.655 106.562 132.25L108.415 131.801C108.498 131.972 108.619 132.14 108.778 132.307C108.938 132.477 109.152 132.617 109.42 132.727C109.693 132.841 110.036 132.898 110.449 132.898C111.032 132.898 111.515 132.756 111.898 132.472C112.28 132.191 112.472 131.729 112.472 131.085V129.432H112.369C112.263 129.644 112.108 129.862 111.903 130.085C111.703 130.309 111.436 130.496 111.102 130.648C110.773 130.799 110.358 130.875 109.858 130.875C109.188 130.875 108.58 130.718 108.034 130.403C107.492 130.085 107.061 129.612 106.739 128.983C106.42 128.35 106.261 127.559 106.261 126.608C106.261 125.65 106.42 124.841 106.739 124.182C107.061 123.519 107.494 123.017 108.04 122.676C108.585 122.331 109.193 122.159 109.864 122.159C110.375 122.159 110.795 122.246 111.125 122.42C111.458 122.591 111.723 122.797 111.92 123.04C112.117 123.278 112.267 123.504 112.369 123.716H112.483V122.273H114.511V131.142C114.511 131.888 114.333 132.506 113.977 132.994C113.621 133.483 113.134 133.848 112.517 134.091C111.9 134.333 111.199 134.455 110.415 134.455ZM110.432 129.261C110.867 129.261 111.239 129.155 111.545 128.943C111.852 128.731 112.085 128.426 112.244 128.028C112.403 127.631 112.483 127.153 112.483 126.597C112.483 126.047 112.403 125.566 112.244 125.153C112.089 124.741 111.858 124.42 111.551 124.193C111.248 123.962 110.875 123.847 110.432 123.847C109.973 123.847 109.591 123.966 109.284 124.205C108.977 124.443 108.746 124.771 108.591 125.188C108.436 125.6 108.358 126.07 108.358 126.597C108.358 127.131 108.436 127.598 108.591 128C108.75 128.398 108.983 128.708 109.29 128.932C109.6 129.152 109.981 129.261 110.432 129.261Z" fill="#24292F"/>
<path d="M24.5 155C24.5 153.067 26.067 151.5 28 151.5H90C91.933 151.5 93.5 153.067 93.5 155V183C93.5 184.933 91.933 186.5 90 186.5H28C26.067 186.5 24.5 184.933 24.5 183V155Z" fill="#F9FAFB"/>
<path d="M24.5 155C24.5 153.067 26.067 151.5 28 151.5H90C91.933 151.5 93.5 153.067 93.5 155V183C93.5 184.933 91.933 186.5 90 186.5H28C26.067 186.5 24.5 184.933 24.5 183V155Z" stroke="#D4DBE2"/>
<path d="M33.2925 174V163.818H36.7329C37.5316 163.818 38.1846 163.962 38.6917 164.251C39.2021 164.536 39.5799 164.922 39.8252 165.409C40.0705 165.896 40.1931 166.44 40.1931 167.04C40.1931 167.64 40.0705 168.185 39.8252 168.675C39.5832 169.166 39.2087 169.557 38.7016 169.849C38.1945 170.137 37.5449 170.281 36.7528 170.281H34.2868V169.188H36.713C37.2599 169.188 37.699 169.093 38.0305 168.904C38.3619 168.715 38.6022 168.46 38.7513 168.138C38.9038 167.814 38.98 167.447 38.98 167.04C38.98 166.632 38.9038 166.268 38.7513 165.946C38.6022 165.625 38.3602 165.373 38.0255 165.19C37.6907 165.005 37.2466 164.912 36.6931 164.912H34.5255V174H33.2925ZM45.1398 174.159C44.404 174.159 43.7693 173.997 43.2357 173.672C42.7054 173.344 42.2961 172.886 42.0077 172.3C41.7227 171.71 41.5802 171.024 41.5802 170.241C41.5802 169.459 41.7227 168.77 42.0077 168.173C42.2961 167.573 42.6971 167.106 43.2108 166.771C43.7279 166.433 44.3311 166.264 45.0205 166.264C45.4182 166.264 45.811 166.33 46.1988 166.463C46.5866 166.596 46.9395 166.811 47.2577 167.109C47.5759 167.404 47.8295 167.795 48.0184 168.283C48.2073 168.77 48.3018 169.37 48.3018 170.082V170.58H42.4154V169.565H47.1086C47.1086 169.134 47.0224 168.75 46.8501 168.412C46.681 168.074 46.4391 167.807 46.1242 167.612C45.8126 167.416 45.4448 167.318 45.0205 167.318C44.5532 167.318 44.1488 167.434 43.8074 167.666C43.4694 167.895 43.2092 168.193 43.0269 168.561C42.8446 168.929 42.7535 169.323 42.7535 169.744V170.42C42.7535 170.997 42.8529 171.486 43.0518 171.887C43.2539 172.285 43.534 172.588 43.892 172.797C44.2499 173.002 44.6659 173.105 45.1398 173.105C45.4481 173.105 45.7265 173.062 45.9751 172.976C46.2269 172.886 46.444 172.754 46.6263 172.578C46.8086 172.399 46.9495 172.177 47.0489 171.912L48.1824 172.23C48.0631 172.615 47.8626 172.953 47.5809 173.244C47.2992 173.533 46.9511 173.758 46.5368 173.92C46.1225 174.08 45.6569 174.159 45.1398 174.159ZM51.2599 169.406V174H50.0866V166.364H51.2201V167.557H51.3195C51.4985 167.169 51.7703 166.857 52.1349 166.622C52.4994 166.384 52.9701 166.264 53.5468 166.264C54.0638 166.264 54.5162 166.37 54.904 166.582C55.2918 166.791 55.5934 167.109 55.8089 167.537C56.0243 167.961 56.132 168.498 56.132 169.148V174H54.9587V169.227C54.9587 168.627 54.8029 168.16 54.4914 167.825C54.1798 167.487 53.7523 167.318 53.2087 167.318C52.8342 167.318 52.4994 167.399 52.2045 167.562C51.9128 167.724 51.6824 167.961 51.5134 168.273C51.3444 168.584 51.2599 168.962 51.2599 169.406ZM61.1595 174.159C60.5232 174.159 59.9614 173.998 59.4742 173.677C58.9869 173.352 58.6058 172.895 58.3307 172.305C58.0556 171.711 57.9181 171.01 57.9181 170.202C57.9181 169.4 58.0556 168.704 58.3307 168.114C58.6058 167.524 58.9886 167.068 59.4791 166.746C59.9697 166.425 60.5364 166.264 61.1794 166.264C61.6766 166.264 62.0693 166.347 62.3577 166.513C62.6494 166.675 62.8714 166.861 63.0239 167.07C63.1797 167.275 63.3006 167.444 63.3868 167.577H63.4862V163.818H64.6595V174H63.526V172.827H63.3868C63.3006 172.966 63.178 173.142 63.0189 173.354C62.8598 173.562 62.6328 173.75 62.3378 173.915C62.0428 174.078 61.6501 174.159 61.1595 174.159ZM61.3186 173.105C61.7893 173.105 62.187 172.982 62.5118 172.737C62.8366 172.489 63.0835 172.146 63.2526 171.708C63.4216 171.267 63.5061 170.759 63.5061 170.182C63.5061 169.612 63.4233 169.113 63.2575 168.685C63.0918 168.254 62.8466 167.92 62.5218 167.681C62.1969 167.439 61.7959 167.318 61.3186 167.318C60.8215 167.318 60.4072 167.446 60.0757 167.701C59.7476 167.953 59.5007 168.296 59.335 168.73C59.1726 169.161 59.0914 169.645 59.0914 170.182C59.0914 170.725 59.1742 171.219 59.3399 171.663C59.509 172.104 59.7575 172.455 60.0857 172.717C60.4171 172.976 60.8281 173.105 61.3186 173.105ZM66.9713 174V166.364H68.1446V174H66.9713ZM67.5679 165.091C67.3392 165.091 67.142 165.013 66.9763 164.857C66.8139 164.701 66.7327 164.514 66.7327 164.295C66.7327 164.077 66.8139 163.889 66.9763 163.734C67.142 163.578 67.3392 163.5 67.5679 163.5C67.7966 163.5 67.9922 163.578 68.1546 163.734C68.3203 163.889 68.4031 164.077 68.4031 164.295C68.4031 164.514 68.3203 164.701 68.1546 164.857C67.9922 165.013 67.7966 165.091 67.5679 165.091ZM71.4669 169.406V174H70.2936V166.364H71.4271V167.557H71.5265C71.7055 167.169 71.9773 166.857 72.3419 166.622C72.7065 166.384 73.1771 166.264 73.7538 166.264C74.2709 166.264 74.7233 166.37 75.1111 166.582C75.4988 166.791 75.8005 167.109 76.0159 167.537C76.2313 167.961 76.339 168.498 76.339 169.148V174H75.1657V169.227C75.1657 168.627 75.01 168.16 74.6984 167.825C74.3869 167.487 73.9593 167.318 73.4157 167.318C73.0412 167.318 72.7065 167.399 72.4115 167.562C72.1198 167.724 71.8895 167.961 71.7204 168.273C71.5514 168.584 71.4669 168.962 71.4669 169.406ZM81.5654 177.023C80.9987 177.023 80.5115 176.95 80.1038 176.804C79.6961 176.661 79.3564 176.473 79.0846 176.237C78.8161 176.005 78.6024 175.757 78.4433 175.491L79.3779 174.835C79.484 174.974 79.6182 175.134 79.7806 175.312C79.943 175.495 80.1651 175.652 80.4468 175.785C80.7319 175.921 81.1047 175.989 81.5654 175.989C82.1819 175.989 82.6907 175.839 83.0917 175.541C83.4928 175.243 83.6933 174.776 83.6933 174.139V172.588H83.5938C83.5077 172.727 83.385 172.9 83.2259 173.105C83.0702 173.307 82.8448 173.488 82.5498 173.647C82.2581 173.803 81.8637 173.881 81.3666 173.881C80.7501 173.881 80.1966 173.735 79.7061 173.443C79.2188 173.152 78.8327 172.727 78.5477 172.17C78.266 171.614 78.1251 170.937 78.1251 170.142C78.1251 169.36 78.2626 168.679 78.5377 168.099C78.8128 167.515 79.1956 167.065 79.6862 166.746C80.1767 166.425 80.7435 166.264 81.3865 166.264C81.8836 166.264 82.278 166.347 82.5697 166.513C82.8647 166.675 83.0901 166.861 83.2458 167.07C83.4049 167.275 83.5276 167.444 83.6137 167.577H83.733V166.364H84.8666V174.219C84.8666 174.875 84.7174 175.409 84.4191 175.82C84.1241 176.234 83.7264 176.537 83.2259 176.729C82.7288 176.925 82.1753 177.023 81.5654 177.023ZM81.5257 172.827C81.9963 172.827 82.394 172.719 82.7188 172.504C83.0436 172.288 83.2906 171.978 83.4596 171.574C83.6286 171.17 83.7132 170.686 83.7132 170.122C83.7132 169.572 83.6303 169.086 83.4646 168.665C83.2989 168.245 83.0536 167.915 82.7288 167.676C82.404 167.437 82.0029 167.318 81.5257 167.318C81.0285 167.318 80.6142 167.444 80.2828 167.696C79.9546 167.948 79.7077 168.286 79.542 168.71C79.3796 169.134 79.2984 169.605 79.2984 170.122C79.2984 170.652 79.3812 171.121 79.547 171.529C79.716 171.933 79.9646 172.252 80.2927 172.484C80.6241 172.712 81.0351 172.827 81.5257 172.827Z" fill="#24292F"/>
<path d="M348.192 151.942L341.942 158.192C341.884 158.25 341.815 158.296 341.739 158.328C341.663 158.359 341.582 158.375 341.5 158.375C341.418 158.375 341.337 158.359 341.261 158.328C341.185 158.296 341.116 158.25 341.058 158.192C341 158.134 340.954 158.065 340.922 157.989C340.891 157.913 340.875 157.832 340.875 157.75C340.875 157.668 340.891 157.587 340.922 157.511C340.954 157.435 341 157.366 341.058 157.308L346.866 151.5L341.058 145.692C340.941 145.575 340.875 145.416 340.875 145.25C340.875 145.084 340.941 144.925 341.058 144.808C341.175 144.691 341.334 144.625 341.5 144.625C341.666 144.625 341.825 144.691 341.942 144.808L348.192 151.058C348.25 151.116 348.296 151.185 348.328 151.261C348.359 151.337 348.375 151.418 348.375 151.5C348.375 151.582 348.359 151.663 348.328 151.739C348.296 151.815 348.25 151.884 348.192 151.942Z" fill="#24292F"/>
<rect width="378" height="1" transform="translate(0 211)" fill="#D4DBE2"/>
<rect width="378" height="119" transform="translate(0 212)" fill="#ECEFF2"/>
<path d="M35.9439 245.182C35.9439 246.436 35.709 247.509 35.2393 248.403C34.7734 249.294 34.1371 249.975 33.3303 250.449C32.5272 250.922 31.6162 251.159 30.5973 251.159C29.5784 251.159 28.6655 250.922 27.8587 250.449C27.0556 249.972 26.4193 249.288 25.9496 248.398C25.4837 247.504 25.2507 246.432 25.2507 245.182C25.2507 243.928 25.4837 242.856 25.9496 241.966C26.4193 241.072 27.0556 240.388 27.8587 239.915C28.6655 239.441 29.5784 239.205 30.5973 239.205C31.6162 239.205 32.5272 239.441 33.3303 239.915C34.1371 240.388 34.7734 241.072 35.2393 241.966C35.709 242.856 35.9439 243.928 35.9439 245.182ZM33.8246 245.182C33.8246 244.299 33.6863 243.555 33.4098 242.949C33.1371 242.339 32.7583 241.879 32.2734 241.568C31.7886 241.254 31.2299 241.097 30.5973 241.097C29.9647 241.097 29.406 241.254 28.9212 241.568C28.4363 241.879 28.0556 242.339 27.7791 242.949C27.5064 243.555 27.37 244.299 27.37 245.182C27.37 246.064 27.5064 246.811 27.7791 247.42C28.0556 248.027 28.4363 248.487 28.9212 248.801C29.406 249.112 29.9647 249.267 30.5973 249.267C31.2299 249.267 31.7886 249.112 32.2734 248.801C32.7583 248.487 33.1371 248.027 33.4098 247.42C33.6863 246.811 33.8246 246.064 33.8246 245.182ZM37.8459 251V242.273H39.8402V243.727H39.9311C40.0902 243.223 40.3629 242.835 40.7493 242.562C41.1394 242.286 41.5845 242.148 42.0845 242.148C42.1982 242.148 42.325 242.153 42.4652 242.165C42.6091 242.172 42.7285 242.186 42.8232 242.205V244.097C42.736 244.066 42.5978 244.04 42.4084 244.017C42.2228 243.991 42.0429 243.977 41.8686 243.977C41.4936 243.977 41.1565 244.059 40.8572 244.222C40.5618 244.381 40.3288 244.602 40.1584 244.886C39.9879 245.17 39.9027 245.498 39.9027 245.869V251H37.8459ZM47.0689 251.153C46.3833 251.153 45.7696 250.977 45.228 250.625C44.6863 250.273 44.2583 249.761 43.9439 249.091C43.6295 248.42 43.4723 247.606 43.4723 246.648C43.4723 245.678 43.6314 244.86 43.9496 244.193C44.2715 243.523 44.7053 243.017 45.2507 242.676C45.7962 242.331 46.4041 242.159 47.0746 242.159C47.5859 242.159 48.0064 242.246 48.3359 242.42C48.6655 242.591 48.9268 242.797 49.12 243.04C49.3132 243.278 49.4628 243.504 49.5689 243.716H49.6541V239.364H51.7166V251H49.6939V249.625H49.5689C49.4628 249.837 49.3094 250.062 49.1087 250.301C48.9079 250.536 48.6428 250.737 48.3132 250.903C47.9837 251.07 47.5689 251.153 47.0689 251.153ZM47.6428 249.466C48.0784 249.466 48.4496 249.348 48.7564 249.114C49.0632 248.875 49.2962 248.544 49.4553 248.119C49.6143 247.695 49.6939 247.201 49.6939 246.636C49.6939 246.072 49.6143 245.581 49.4553 245.165C49.3 244.748 49.0689 244.424 48.7621 244.193C48.459 243.962 48.0859 243.847 47.6428 243.847C47.1844 243.847 46.8018 243.966 46.495 244.205C46.1882 244.443 45.9571 244.773 45.8018 245.193C45.6465 245.614 45.5689 246.095 45.5689 246.636C45.5689 247.182 45.6465 247.669 45.8018 248.097C45.9609 248.521 46.1939 248.856 46.5007 249.102C46.8113 249.345 47.192 249.466 47.6428 249.466ZM57.772 251.17C56.897 251.17 56.1413 250.989 55.505 250.625C54.8724 250.258 54.3857 249.739 54.0447 249.068C53.7038 248.394 53.5334 247.6 53.5334 246.688C53.5334 245.79 53.7038 245.002 54.0447 244.324C54.3894 243.642 54.8705 243.112 55.4879 242.733C56.1054 242.35 56.8307 242.159 57.6641 242.159C58.2019 242.159 58.7095 242.246 59.1868 242.42C59.6679 242.591 60.0921 242.856 60.4595 243.216C60.8307 243.576 61.1224 244.034 61.3345 244.591C61.5466 245.144 61.6527 245.803 61.6527 246.568V247.199H54.4993V245.812H59.6811C59.6773 245.419 59.5921 245.068 59.4254 244.761C59.2588 244.451 59.0258 244.206 58.7266 244.028C58.4311 243.85 58.0864 243.761 57.6925 243.761C57.272 243.761 56.9027 243.864 56.5845 244.068C56.2663 244.269 56.0182 244.534 55.8402 244.864C55.666 245.189 55.5769 245.547 55.5732 245.938V247.148C55.5732 247.655 55.666 248.091 55.8516 248.455C56.0372 248.814 56.2966 249.091 56.63 249.284C56.9633 249.473 57.3535 249.568 57.8004 249.568C58.0997 249.568 58.3705 249.527 58.6129 249.443C58.8554 249.356 59.0656 249.229 59.2436 249.062C59.4216 248.896 59.5561 248.689 59.647 248.443L61.5675 248.659C61.4463 249.167 61.2152 249.61 60.8743 249.989C60.5372 250.364 60.1054 250.655 59.5788 250.864C59.0523 251.068 58.45 251.17 57.772 251.17ZM63.3928 251V242.273H65.3871V243.727H65.478C65.6371 243.223 65.9098 242.835 66.2962 242.562C66.6863 242.286 67.1314 242.148 67.6314 242.148C67.745 242.148 67.8719 242.153 68.0121 242.165C68.156 242.172 68.2753 242.186 68.37 242.205V244.097C68.2829 244.066 68.1446 244.04 67.9553 244.017C67.7696 243.991 67.5897 243.977 67.4155 243.977C67.0405 243.977 66.7034 244.059 66.4041 244.222C66.1087 244.381 65.8757 244.602 65.7053 244.886C65.5348 245.17 65.4496 245.498 65.4496 245.869V251H63.3928ZM69.7365 251V242.273H71.7933V251H69.7365ZM70.7706 241.034C70.4448 241.034 70.1645 240.926 69.9297 240.71C69.6948 240.491 69.5774 240.227 69.5774 239.92C69.5774 239.61 69.6948 239.347 69.9297 239.131C70.1645 238.911 70.4448 238.801 70.7706 238.801C71.1001 238.801 71.3804 238.911 71.6115 239.131C71.8464 239.347 71.9638 239.61 71.9638 239.92C71.9638 240.227 71.8464 240.491 71.6115 240.71C71.3804 240.926 71.1001 241.034 70.7706 241.034ZM75.9652 245.886V251H73.9084V242.273H75.8743V243.756H75.9766C76.1773 243.267 76.4974 242.879 76.9368 242.591C77.38 242.303 77.9273 242.159 78.5788 242.159C79.1811 242.159 79.7057 242.288 80.1527 242.545C80.6035 242.803 80.9519 243.176 81.1982 243.665C81.4482 244.153 81.5713 244.746 81.5675 245.443V251H79.5107V245.761C79.5107 245.178 79.3591 244.722 79.0561 244.392C78.7569 244.062 78.3421 243.898 77.8118 243.898C77.4519 243.898 77.1319 243.977 76.8516 244.136C76.575 244.292 76.3572 244.517 76.1982 244.812C76.0429 245.108 75.9652 245.466 75.9652 245.886ZM87.4538 254.455C86.7152 254.455 86.0807 254.354 85.5504 254.153C85.0201 253.956 84.594 253.691 84.272 253.358C83.95 253.025 83.7266 252.655 83.6016 252.25L85.4538 251.801C85.5372 251.972 85.6584 252.14 85.8175 252.307C85.9766 252.477 86.1906 252.617 86.4595 252.727C86.7322 252.841 87.075 252.898 87.4879 252.898C88.0713 252.898 88.5542 252.756 88.9368 252.472C89.3194 252.191 89.5107 251.729 89.5107 251.085V249.432H89.4084C89.3023 249.644 89.147 249.862 88.9425 250.085C88.7417 250.309 88.4747 250.496 88.1413 250.648C87.8118 250.799 87.397 250.875 86.897 250.875C86.2266 250.875 85.6186 250.718 85.0732 250.403C84.5315 250.085 84.0997 249.612 83.7777 248.983C83.4595 248.35 83.3004 247.559 83.3004 246.608C83.3004 245.65 83.4595 244.841 83.7777 244.182C84.0997 243.519 84.5334 243.017 85.0788 242.676C85.6243 242.331 86.2322 242.159 86.9027 242.159C87.4141 242.159 87.8345 242.246 88.1641 242.42C88.4974 242.591 88.7625 242.797 88.9595 243.04C89.1565 243.278 89.3061 243.504 89.4084 243.716H89.522V242.273H91.5504V251.142C91.5504 251.888 91.3724 252.506 91.0163 252.994C90.6603 253.483 90.1735 253.848 89.5561 254.091C88.9387 254.333 88.2379 254.455 87.4538 254.455ZM87.4709 249.261C87.9065 249.261 88.2777 249.155 88.5845 248.943C88.8913 248.731 89.1243 248.426 89.2834 248.028C89.4425 247.631 89.522 247.153 89.522 246.597C89.522 246.047 89.4425 245.566 89.2834 245.153C89.1281 244.741 88.897 244.42 88.5902 244.193C88.2872 243.962 87.9141 243.847 87.4709 243.847C87.0125 243.847 86.63 243.966 86.3232 244.205C86.0163 244.443 85.7853 244.771 85.63 245.188C85.4747 245.6 85.397 246.07 85.397 246.597C85.397 247.131 85.4747 247.598 85.63 248C85.7891 248.398 86.022 248.708 86.3288 248.932C86.6394 249.152 87.0201 249.261 87.4709 249.261Z" fill="#24292F"/>
<path d="M24.5 275C24.5 273.067 26.067 271.5 28 271.5H106C107.933 271.5 109.5 273.067 109.5 275V303C109.5 304.933 107.933 306.5 106 306.5H28C26.067 306.5 24.5 304.933 24.5 303V275Z" fill="#E1F8EF"/>
<path d="M24.5 275C24.5 273.067 26.067 271.5 28 271.5H106C107.933 271.5 109.5 273.067 109.5 275V303C109.5 304.933 107.933 306.5 106 306.5H28C26.067 306.5 24.5 304.933 24.5 303V275Z" stroke="#24A26E"/>
<path d="M32.8129 284.912V283.818H40.4492V284.912H37.2475V294H36.0146V284.912H32.8129ZM44.2873 294.159C43.5515 294.159 42.9168 293.997 42.3832 293.672C41.8529 293.344 41.4435 292.886 41.1552 292.3C40.8701 291.71 40.7276 291.024 40.7276 290.241C40.7276 289.459 40.8701 288.77 41.1552 288.173C41.4435 287.573 41.8446 287.106 42.3583 286.771C42.8754 286.433 43.4786 286.264 44.168 286.264C44.5657 286.264 44.9585 286.33 45.3462 286.463C45.734 286.596 46.087 286.811 46.4052 287.109C46.7234 287.404 46.9769 287.795 47.1658 288.283C47.3548 288.77 47.4492 289.37 47.4492 290.082V290.58H41.5629V289.565H46.256C46.256 289.134 46.1699 288.75 45.9975 288.412C45.8285 288.074 45.5865 287.807 45.2717 287.612C44.9601 287.416 44.5922 287.318 44.168 287.318C43.7006 287.318 43.2963 287.434 42.9549 287.666C42.6168 287.895 42.3567 288.193 42.1744 288.561C41.9921 288.929 41.9009 289.323 41.9009 289.744V290.42C41.9009 290.997 42.0004 291.486 42.1992 291.887C42.4014 292.285 42.6815 292.588 43.0394 292.797C43.3974 293.002 43.8133 293.105 44.2873 293.105C44.5955 293.105 44.8739 293.062 45.1225 292.976C45.3744 292.886 45.5915 292.754 45.7738 292.578C45.9561 292.399 46.0969 292.177 46.1964 291.912L47.3299 292.23C47.2106 292.615 47.0101 292.953 46.7283 293.244C46.4466 293.533 46.0986 293.758 45.6843 293.92C45.27 294.08 44.8043 294.159 44.2873 294.159ZM54.6431 288.074L53.5891 288.372C53.5228 288.196 53.4251 288.026 53.2958 287.86C53.1699 287.691 52.9975 287.552 52.7788 287.442C52.56 287.333 52.2799 287.278 51.9386 287.278C51.4712 287.278 51.0818 287.386 50.7702 287.602C50.462 287.814 50.3079 288.084 50.3079 288.412C50.3079 288.704 50.4139 288.934 50.6261 289.103C50.8382 289.272 51.1696 289.413 51.6204 289.526L52.7539 289.804C53.4367 289.97 53.9454 290.223 54.2802 290.565C54.6149 290.903 54.7823 291.339 54.7823 291.872C54.7823 292.31 54.6564 292.701 54.4045 293.045C54.1559 293.39 53.8079 293.662 53.3604 293.861C52.913 294.06 52.3926 294.159 51.7994 294.159C51.0205 294.159 50.3758 293.99 49.8654 293.652C49.355 293.314 49.0318 292.82 48.896 292.17L50.0096 291.892C50.1156 292.303 50.3162 292.611 50.6112 292.817C50.9094 293.022 51.2989 293.125 51.7795 293.125C52.3263 293.125 52.7605 293.009 53.082 292.777C53.4068 292.542 53.5692 292.26 53.5692 291.932C53.5692 291.667 53.4764 291.445 53.2908 291.266C53.1052 291.083 52.8202 290.947 52.4357 290.858L51.163 290.56C50.4637 290.394 49.9499 290.137 49.6218 289.789C49.297 289.438 49.1346 288.999 49.1346 288.472C49.1346 288.041 49.2556 287.66 49.4975 287.328C49.7428 286.997 50.0759 286.737 50.4968 286.548C50.921 286.359 51.4016 286.264 51.9386 286.264C52.6942 286.264 53.2875 286.43 53.7184 286.761C54.1526 287.093 54.4608 287.53 54.6431 288.074ZM59.8695 286.364V287.358H55.9121V286.364H59.8695ZM57.0655 284.534H58.2388V291.812C58.2388 292.144 58.2869 292.393 58.383 292.558C58.4824 292.721 58.6084 292.83 58.7608 292.886C58.9166 292.939 59.0807 292.966 59.253 292.966C59.3823 292.966 59.4883 292.959 59.5712 292.946C59.6541 292.929 59.7203 292.916 59.7701 292.906L60.0087 293.96C59.9292 293.99 59.8181 294.02 59.6756 294.05C59.5331 294.083 59.3525 294.099 59.1337 294.099C58.8023 294.099 58.4775 294.028 58.1593 293.886C57.8444 293.743 57.5826 293.526 57.3738 293.234C57.1683 292.943 57.0655 292.575 57.0655 292.131V284.534ZM65.5719 294V286.364H66.7054V287.557H66.8049C66.964 287.149 67.2208 286.833 67.5755 286.607C67.9301 286.379 68.356 286.264 68.8532 286.264C69.3569 286.264 69.7762 286.379 70.111 286.607C70.449 286.833 70.7125 287.149 70.9015 287.557H70.981C71.1766 287.162 71.4699 286.849 71.861 286.617C72.2521 286.382 72.7211 286.264 73.2679 286.264C73.9507 286.264 74.5092 286.478 74.9434 286.906C75.3775 287.33 75.5946 287.991 75.5946 288.889V294H74.4213V288.889C74.4213 288.326 74.2672 287.923 73.959 287.681C73.6507 287.439 73.2878 287.318 72.8702 287.318C72.3333 287.318 71.9173 287.481 71.6223 287.805C71.3274 288.127 71.1799 288.535 71.1799 289.028V294H69.9867V288.77C69.9867 288.336 69.8458 287.986 69.5641 287.721C69.2824 287.452 68.9194 287.318 68.4753 287.318C68.1704 287.318 67.8854 287.399 67.6202 287.562C67.3584 287.724 67.1462 287.95 66.9838 288.238C66.8248 288.523 66.7452 288.853 66.7452 289.227V294H65.5719ZM80.8422 294.159C80.1528 294.159 79.5479 293.995 79.0275 293.667C78.5105 293.339 78.1061 292.88 77.8145 292.29C77.5261 291.7 77.3819 291.01 77.3819 290.222C77.3819 289.426 77.5261 288.732 77.8145 288.138C78.1061 287.545 78.5105 287.085 79.0275 286.756C79.5479 286.428 80.1528 286.264 80.8422 286.264C81.5315 286.264 82.1348 286.428 82.6518 286.756C83.1722 287.085 83.5765 287.545 83.8649 288.138C84.1565 288.732 84.3024 289.426 84.3024 290.222C84.3024 291.01 84.1565 291.7 83.8649 292.29C83.5765 292.88 83.1722 293.339 82.6518 293.667C82.1348 293.995 81.5315 294.159 80.8422 294.159ZM80.8422 293.105C81.3658 293.105 81.7967 292.971 82.1348 292.702C82.4728 292.434 82.7231 292.081 82.8855 291.643C83.0479 291.206 83.1291 290.732 83.1291 290.222C83.1291 289.711 83.0479 289.236 82.8855 288.795C82.7231 288.354 82.4728 287.998 82.1348 287.726C81.7967 287.454 81.3658 287.318 80.8422 287.318C80.3185 287.318 79.8876 287.454 79.5495 287.726C79.2115 287.998 78.9612 288.354 78.7988 288.795C78.6364 289.236 78.5552 289.711 78.5552 290.222C78.5552 290.732 78.6364 291.206 78.7988 291.643C78.9612 292.081 79.2115 292.434 79.5495 292.702C79.8876 292.971 80.3185 293.105 80.8422 293.105ZM88.9769 294.159C88.3406 294.159 87.7788 293.998 87.2915 293.677C86.8043 293.352 86.4232 292.895 86.1481 292.305C85.873 291.711 85.7354 291.01 85.7354 290.202C85.7354 289.4 85.873 288.704 86.1481 288.114C86.4232 287.524 86.806 287.068 87.2965 286.746C87.7871 286.425 88.3538 286.264 88.9968 286.264C89.494 286.264 89.8867 286.347 90.1751 286.513C90.4667 286.675 90.6888 286.861 90.8413 287.07C90.997 287.275 91.118 287.444 91.2042 287.577H91.3036V283.818H92.4769V294H91.3434V292.827H91.2042C91.118 292.966 90.9954 293.142 90.8363 293.354C90.6772 293.562 90.4502 293.75 90.1552 293.915C89.8602 294.078 89.4674 294.159 88.9769 294.159ZM89.136 293.105C89.6067 293.105 90.0044 292.982 90.3292 292.737C90.654 292.489 90.9009 292.146 91.07 291.708C91.239 291.267 91.3235 290.759 91.3235 290.182C91.3235 289.612 91.2406 289.113 91.0749 288.685C90.9092 288.254 90.6639 287.92 90.3391 287.681C90.0143 287.439 89.6133 287.318 89.136 287.318C88.6388 287.318 88.2246 287.446 87.8931 287.701C87.565 287.953 87.3181 288.296 87.1523 288.73C86.9899 289.161 86.9087 289.645 86.9087 290.182C86.9087 290.725 86.9916 291.219 87.1573 291.663C87.3263 292.104 87.5749 292.455 87.9031 292.717C88.2345 292.976 88.6455 293.105 89.136 293.105ZM97.9904 294.159C97.2546 294.159 96.6199 293.997 96.0863 293.672C95.556 293.344 95.1467 292.886 94.8583 292.3C94.5733 291.71 94.4308 291.024 94.4308 290.241C94.4308 289.459 94.5733 288.77 94.8583 288.173C95.1467 287.573 95.5477 287.106 96.0614 286.771C96.5785 286.433 97.1817 286.264 97.8711 286.264C98.2688 286.264 98.6616 286.33 99.0494 286.463C99.4371 286.596 99.7901 286.811 100.108 287.109C100.426 287.404 100.68 287.795 100.869 288.283C101.058 288.77 101.152 289.37 101.152 290.082V290.58H95.266V289.565H99.9592C99.9592 289.134 99.873 288.75 99.7006 288.412C99.5316 288.074 99.2897 287.807 98.9748 287.612C98.6632 287.416 98.2953 287.318 97.8711 287.318C97.4038 287.318 96.9994 287.434 96.658 287.666C96.32 287.895 96.0598 288.193 95.8775 288.561C95.6952 288.929 95.604 289.323 95.604 289.744V290.42C95.604 290.997 95.7035 291.486 95.9023 291.887C96.1045 292.285 96.3846 292.588 96.7425 292.797C97.1005 293.002 97.5165 293.105 97.9904 293.105C98.2987 293.105 98.5771 293.062 98.8256 292.976C99.0775 292.886 99.2946 292.754 99.4769 292.578C99.6592 292.399 99.8001 292.177 99.8995 291.912L101.033 292.23C100.914 292.615 100.713 292.953 100.431 293.244C100.15 293.533 99.8017 293.758 99.3874 293.92C98.9731 294.08 98.5075 294.159 97.9904 294.159Z" fill="#1F895D"/>
<path d="M114.5 275C114.5 273.067 116.067 271.5 118 271.5H198C199.933 271.5 201.5 273.067 201.5 275V303C201.5 304.933 199.933 306.5 198 306.5H118C116.067 306.5 114.5 304.933 114.5 303V275Z" fill="#F9FAFB"/>
<path d="M114.5 275C114.5 273.067 116.067 271.5 118 271.5H198C199.933 271.5 201.5 273.067 201.5 275V303C201.5 304.933 199.933 306.5 198 306.5H118C116.067 306.5 114.5 304.933 114.5 303V275Z" stroke="#D4DBE2"/>
<path d="M123.324 294V283.818H126.764C127.563 283.818 128.216 283.962 128.723 284.251C129.233 284.536 129.611 284.922 129.856 285.409C130.102 285.896 130.224 286.44 130.224 287.04C130.224 287.64 130.102 288.185 129.856 288.675C129.614 289.166 129.24 289.557 128.733 289.849C128.226 290.137 127.576 290.281 126.784 290.281H124.318V289.188H126.744C127.291 289.188 127.73 289.093 128.062 288.904C128.393 288.715 128.633 288.46 128.783 288.138C128.935 287.814 129.011 287.447 129.011 287.04C129.011 286.632 128.935 286.268 128.783 285.946C128.633 285.625 128.391 285.373 128.057 285.19C127.722 285.005 127.278 284.912 126.724 284.912H124.557V294H123.324ZM132.051 294V286.364H133.185V287.517H133.264C133.404 287.139 133.656 286.833 134.02 286.597C134.385 286.362 134.796 286.244 135.253 286.244C135.339 286.244 135.447 286.246 135.576 286.249C135.706 286.253 135.803 286.258 135.87 286.264V287.457C135.83 287.447 135.739 287.433 135.596 287.413C135.457 287.389 135.309 287.378 135.154 287.378C134.782 287.378 134.451 287.456 134.159 287.612C133.871 287.764 133.642 287.976 133.473 288.248C133.308 288.516 133.225 288.823 133.225 289.168V294H132.051ZM140.13 294.159C139.441 294.159 138.836 293.995 138.316 293.667C137.799 293.339 137.394 292.88 137.103 292.29C136.814 291.7 136.67 291.01 136.67 290.222C136.67 289.426 136.814 288.732 137.103 288.138C137.394 287.545 137.799 287.085 138.316 286.756C138.836 286.428 139.441 286.264 140.13 286.264C140.82 286.264 141.423 286.428 141.94 286.756C142.46 287.085 142.865 287.545 143.153 288.138C143.445 288.732 143.59 289.426 143.59 290.222C143.59 291.01 143.445 291.7 143.153 292.29C142.865 292.88 142.46 293.339 141.94 293.667C141.423 293.995 140.82 294.159 140.13 294.159ZM140.13 293.105C140.654 293.105 141.085 292.971 141.423 292.702C141.761 292.434 142.011 292.081 142.174 291.643C142.336 291.206 142.417 290.732 142.417 290.222C142.417 289.711 142.336 289.236 142.174 288.795C142.011 288.354 141.761 287.998 141.423 287.726C141.085 287.454 140.654 287.318 140.13 287.318C139.607 287.318 139.176 287.454 138.838 287.726C138.5 287.998 138.249 288.354 138.087 288.795C137.925 289.236 137.843 289.711 137.843 290.222C137.843 290.732 137.925 291.206 138.087 291.643C138.249 292.081 138.5 292.434 138.838 292.702C139.176 292.971 139.607 293.105 140.13 293.105ZM148.265 294.159C147.629 294.159 147.067 293.998 146.58 293.677C146.092 293.352 145.711 292.895 145.436 292.305C145.161 291.711 145.024 291.01 145.024 290.202C145.024 289.4 145.161 288.704 145.436 288.114C145.711 287.524 146.094 287.068 146.585 286.746C147.075 286.425 147.642 286.264 148.285 286.264C148.782 286.264 149.175 286.347 149.463 286.513C149.755 286.675 149.977 286.861 150.129 287.07C150.285 287.275 150.406 287.444 150.492 287.577H150.592V283.818H151.765V294H150.631V292.827H150.492C150.406 292.966 150.283 293.142 150.124 293.354C149.965 293.562 149.738 293.75 149.443 293.915C149.148 294.078 148.756 294.159 148.265 294.159ZM148.424 293.105C148.895 293.105 149.292 292.982 149.617 292.737C149.942 292.489 150.189 292.146 150.358 291.708C150.527 291.267 150.612 290.759 150.612 290.182C150.612 289.612 150.529 289.113 150.363 288.685C150.197 288.254 149.952 287.92 149.627 287.681C149.302 287.439 148.901 287.318 148.424 287.318C147.927 287.318 147.513 287.446 147.181 287.701C146.853 287.953 146.606 288.296 146.44 288.73C146.278 289.161 146.197 289.645 146.197 290.182C146.197 290.725 146.28 291.219 146.445 291.663C146.614 292.104 146.863 292.455 147.191 292.717C147.523 292.976 147.934 293.105 148.424 293.105ZM158.889 290.878V286.364H160.063V294H158.889V292.707H158.81C158.631 293.095 158.352 293.425 157.975 293.697C157.597 293.965 157.119 294.099 156.543 294.099C156.065 294.099 155.641 293.995 155.27 293.786C154.899 293.574 154.607 293.256 154.395 292.832C154.183 292.404 154.077 291.866 154.077 291.216V286.364H155.25V291.136C155.25 291.693 155.406 292.137 155.717 292.469C156.032 292.8 156.433 292.966 156.921 292.966C157.212 292.966 157.509 292.891 157.81 292.742C158.115 292.593 158.371 292.364 158.576 292.056C158.785 291.748 158.889 291.355 158.889 290.878ZM165.314 294.159C164.598 294.159 163.981 293.99 163.464 293.652C162.947 293.314 162.55 292.848 162.271 292.255C161.993 291.662 161.854 290.984 161.854 290.222C161.854 289.446 161.996 288.762 162.281 288.168C162.57 287.572 162.971 287.106 163.484 286.771C164.001 286.433 164.605 286.264 165.294 286.264C165.831 286.264 166.315 286.364 166.746 286.562C167.177 286.761 167.53 287.04 167.805 287.398C168.08 287.756 168.25 288.173 168.317 288.651H167.143C167.054 288.303 166.855 287.994 166.547 287.726C166.242 287.454 165.831 287.318 165.314 287.318C164.856 287.318 164.455 287.437 164.111 287.676C163.769 287.911 163.503 288.245 163.31 288.675C163.121 289.103 163.027 289.605 163.027 290.182C163.027 290.772 163.12 291.286 163.305 291.723C163.494 292.161 163.759 292.5 164.101 292.742C164.445 292.984 164.85 293.105 165.314 293.105C165.619 293.105 165.896 293.052 166.144 292.946C166.393 292.84 166.603 292.688 166.775 292.489C166.948 292.29 167.07 292.051 167.143 291.773H168.317C168.25 292.223 168.086 292.629 167.824 292.991C167.566 293.349 167.223 293.634 166.795 293.846C166.371 294.055 165.877 294.159 165.314 294.159ZM173.353 286.364V287.358H169.396V286.364H173.353ZM170.549 284.534H171.722V291.812C171.722 292.144 171.77 292.393 171.866 292.558C171.966 292.721 172.092 292.83 172.244 292.886C172.4 292.939 172.564 292.966 172.736 292.966C172.866 292.966 172.972 292.959 173.055 292.946C173.137 292.929 173.204 292.916 173.253 292.906L173.492 293.96C173.413 293.99 173.302 294.02 173.159 294.05C173.016 294.083 172.836 294.099 172.617 294.099C172.286 294.099 171.961 294.028 171.643 293.886C171.328 293.743 171.066 293.526 170.857 293.234C170.652 292.943 170.549 292.575 170.549 292.131V284.534ZM175.118 294V286.364H176.291V294H175.118ZM175.714 285.091C175.486 285.091 175.289 285.013 175.123 284.857C174.96 284.701 174.879 284.514 174.879 284.295C174.879 284.077 174.96 283.889 175.123 283.734C175.289 283.578 175.486 283.5 175.714 283.5C175.943 283.5 176.139 283.578 176.301 283.734C176.467 283.889 176.55 284.077 176.55 284.295C176.55 284.514 176.467 284.701 176.301 284.857C176.139 285.013 175.943 285.091 175.714 285.091ZM181.542 294.159C180.853 294.159 180.248 293.995 179.728 293.667C179.211 293.339 178.806 292.88 178.515 292.29C178.226 291.7 178.082 291.01 178.082 290.222C178.082 289.426 178.226 288.732 178.515 288.138C178.806 287.545 179.211 287.085 179.728 286.756C180.248 286.428 180.853 286.264 181.542 286.264C182.232 286.264 182.835 286.428 183.352 286.756C183.872 287.085 184.277 287.545 184.565 288.138C184.857 288.732 185.003 289.426 185.003 290.222C185.003 291.01 184.857 291.7 184.565 292.29C184.277 292.88 183.872 293.339 183.352 293.667C182.835 293.995 182.232 294.159 181.542 294.159ZM181.542 293.105C182.066 293.105 182.497 292.971 182.835 292.702C183.173 292.434 183.423 292.081 183.586 291.643C183.748 291.206 183.829 290.732 183.829 290.222C183.829 289.711 183.748 289.236 183.586 288.795C183.423 288.354 183.173 287.998 182.835 287.726C182.497 287.454 182.066 287.318 181.542 287.318C181.019 287.318 180.588 287.454 180.25 287.726C179.912 287.998 179.661 288.354 179.499 288.795C179.337 289.236 179.255 289.711 179.255 290.222C179.255 290.732 179.337 291.206 179.499 291.643C179.661 292.081 179.912 292.434 180.25 292.702C180.588 292.971 181.019 293.105 181.542 293.105ZM187.967 289.406V294H186.794V286.364H187.927V287.557H188.027C188.206 287.169 188.477 286.857 188.842 286.622C189.206 286.384 189.677 286.264 190.254 286.264C190.771 286.264 191.223 286.37 191.611 286.582C191.999 286.791 192.3 287.109 192.516 287.537C192.731 287.961 192.839 288.498 192.839 289.148V294H191.666V289.227C191.666 288.627 191.51 288.16 191.198 287.825C190.887 287.487 190.459 287.318 189.916 287.318C189.541 287.318 189.206 287.399 188.911 287.562C188.62 287.724 188.389 287.961 188.22 288.273C188.051 288.584 187.967 288.962 187.967 289.406Z" fill="#24292F"/>
<path d="M348.192 271.942L341.942 278.192C341.884 278.25 341.815 278.296 341.739 278.328C341.663 278.359 341.582 278.375 341.5 278.375C341.418 278.375 341.337 278.359 341.261 278.328C341.185 278.296 341.116 278.25 341.058 278.192C341 278.134 340.954 278.065 340.922 277.989C340.891 277.913 340.875 277.832 340.875 277.75C340.875 277.668 340.891 277.587 340.922 277.511C340.954 277.435 341 277.366 341.058 277.308L346.866 271.5L341.058 265.692C340.941 265.575 340.875 265.416 340.875 265.25C340.875 265.084 340.941 264.925 341.058 264.808C341.175 264.691 341.334 264.625 341.5 264.625C341.666 264.625 341.825 264.691 341.942 264.808L348.192 271.058C348.25 271.116 348.296 271.185 348.328 271.261C348.359 271.337 348.375 271.418 348.375 271.5C348.375 271.582 348.359 271.663 348.328 271.739C348.296 271.815 348.25 271.884 348.192 271.942Z" fill="#24292F"/>
<rect width="378" height="1" transform="translate(0 331)" fill="#D4DBE2"/>
<rect width="378" height="119" transform="translate(0 332)" fill="#ECEFF2"/>
<path d="M25.3587 359.364H27.9382L31.3928 367.795H31.5291L34.9837 359.364H37.5632V371H35.5405V363.006H35.4325L32.2166 370.966H30.7053L27.4893 362.989H27.3814V371H25.3587V359.364ZM42.2791 371.176C41.7261 371.176 41.228 371.078 40.7848 370.881C40.3454 370.68 39.9969 370.384 39.7393 369.994C39.4856 369.604 39.3587 369.123 39.3587 368.551C39.3587 368.059 39.4496 367.652 39.6314 367.33C39.8132 367.008 40.0613 366.75 40.3757 366.557C40.6901 366.364 41.0443 366.218 41.4382 366.119C41.8359 366.017 42.2469 365.943 42.6712 365.898C43.1825 365.845 43.5973 365.797 43.9155 365.756C44.2337 365.71 44.4647 365.642 44.6087 365.551C44.7564 365.456 44.8303 365.311 44.8303 365.114V365.08C44.8303 364.652 44.7034 364.32 44.4496 364.085C44.1958 363.85 43.8303 363.733 43.353 363.733C42.8492 363.733 42.4496 363.843 42.1541 364.062C41.8625 364.282 41.6655 364.542 41.5632 364.841L39.6428 364.568C39.7943 364.038 40.0443 363.595 40.3928 363.239C40.7412 362.879 41.1674 362.61 41.6712 362.432C42.175 362.25 42.7318 362.159 43.3416 362.159C43.7621 362.159 44.1806 362.208 44.5973 362.307C45.014 362.405 45.3946 362.568 45.7393 362.795C46.084 363.019 46.3606 363.324 46.5689 363.71C46.781 364.097 46.8871 364.58 46.8871 365.159V371H44.9098V369.801H44.8416C44.7166 370.044 44.5405 370.271 44.3132 370.483C44.0897 370.691 43.8075 370.86 43.4666 370.989C43.1295 371.114 42.7337 371.176 42.2791 371.176ZM42.8132 369.665C43.2261 369.665 43.584 369.583 43.8871 369.42C44.1901 369.254 44.4231 369.034 44.5859 368.761C44.7526 368.489 44.8359 368.191 44.8359 367.869V366.841C44.7715 366.894 44.6617 366.943 44.5064 366.989C44.3549 367.034 44.1844 367.074 43.995 367.108C43.8056 367.142 43.6181 367.172 43.4325 367.199C43.2469 367.225 43.0859 367.248 42.9496 367.267C42.6428 367.309 42.3681 367.377 42.1257 367.472C41.8833 367.566 41.692 367.699 41.5518 367.869C41.4117 368.036 41.3416 368.252 41.3416 368.517C41.3416 368.896 41.4799 369.182 41.7564 369.375C42.0329 369.568 42.3852 369.665 42.8132 369.665ZM51.0121 365.886V371H48.9553V362.273H50.9212V363.756H51.0234C51.2242 363.267 51.5443 362.879 51.9837 362.591C52.4268 362.303 52.9742 362.159 53.6257 362.159C54.228 362.159 54.7526 362.288 55.1996 362.545C55.6503 362.803 55.9988 363.176 56.245 363.665C56.495 364.153 56.6181 364.746 56.6143 365.443V371H54.5575V365.761C54.5575 365.178 54.406 364.722 54.103 364.392C53.8037 364.062 53.389 363.898 52.8587 363.898C52.4988 363.898 52.1787 363.977 51.8984 364.136C51.6219 364.292 51.4041 364.517 51.245 364.812C51.0897 365.108 51.0121 365.466 51.0121 365.886ZM58.7053 371V362.273H60.7621V371H58.7053ZM59.7393 361.034C59.4136 361.034 59.1333 360.926 58.8984 360.71C58.6636 360.491 58.5462 360.227 58.5462 359.92C58.5462 359.61 58.6636 359.347 58.8984 359.131C59.1333 358.911 59.4136 358.801 59.7393 358.801C60.0689 358.801 60.3492 358.911 60.5803 359.131C60.8151 359.347 60.9325 359.61 60.9325 359.92C60.9325 360.227 60.8151 360.491 60.5803 360.71C60.3492 360.926 60.0689 361.034 59.7393 361.034ZM67.2976 362.273V363.864H62.1385V362.273H67.2976ZM63.4283 371V361.449C63.4283 360.862 63.5495 360.373 63.7919 359.983C64.0381 359.593 64.3677 359.301 64.7805 359.108C65.1934 358.915 65.6518 358.818 66.1555 358.818C66.5116 358.818 66.8279 358.847 67.1044 358.903C67.3809 358.96 67.5855 359.011 67.718 359.057L67.3089 360.648C67.2218 360.621 67.112 360.595 66.9794 360.568C66.8468 360.538 66.6991 360.523 66.5362 360.523C66.1536 360.523 65.8828 360.616 65.7237 360.801C65.5684 360.983 65.4908 361.244 65.4908 361.585V371H63.4283ZM72.4439 371.17C71.5689 371.17 70.8132 370.989 70.1768 370.625C69.5443 370.258 69.0575 369.739 68.7166 369.068C68.3757 368.394 68.2053 367.6 68.2053 366.688C68.2053 365.79 68.3757 365.002 68.7166 364.324C69.0613 363.642 69.5424 363.112 70.1598 362.733C70.7772 362.35 71.5026 362.159 72.3359 362.159C72.8738 362.159 73.3814 362.246 73.8587 362.42C74.3397 362.591 74.764 362.856 75.1314 363.216C75.5026 363.576 75.7943 364.034 76.0064 364.591C76.2185 365.144 76.3246 365.803 76.3246 366.568V367.199H69.1712V365.812H74.353C74.3492 365.419 74.264 365.068 74.0973 364.761C73.9306 364.451 73.6977 364.206 73.3984 364.028C73.103 363.85 72.7583 363.761 72.3643 363.761C71.9439 363.761 71.5746 363.864 71.2564 364.068C70.9382 364.269 70.6901 364.534 70.5121 364.864C70.3378 365.189 70.2488 365.547 70.245 365.938V367.148C70.245 367.655 70.3378 368.091 70.5234 368.455C70.709 368.814 70.9685 369.091 71.3018 369.284C71.6352 369.473 72.0253 369.568 72.4723 369.568C72.7715 369.568 73.0424 369.527 73.2848 369.443C73.5272 369.356 73.7375 369.229 73.9155 369.062C74.0935 368.896 74.228 368.689 74.3189 368.443L76.2393 368.659C76.1181 369.167 75.8871 369.61 75.5462 369.989C75.209 370.364 74.7772 370.655 74.2507 370.864C73.7242 371.068 73.1219 371.17 72.4439 371.17ZM84.9624 364.58L83.0874 364.784C83.0343 364.595 82.9415 364.417 82.8089 364.25C82.6802 364.083 82.5059 363.949 82.2862 363.847C82.0665 363.744 81.7976 363.693 81.4794 363.693C81.0514 363.693 80.6915 363.786 80.3999 363.972C80.112 364.157 79.9699 364.398 79.9737 364.693C79.9699 364.947 80.0627 365.153 80.2521 365.312C80.4453 365.472 80.7635 365.602 81.2067 365.705L82.6953 366.023C83.5211 366.201 84.1347 366.483 84.5362 366.869C84.9415 367.256 85.1461 367.761 85.1499 368.386C85.1461 368.936 84.9851 369.42 84.6669 369.841C84.3525 370.258 83.915 370.583 83.3544 370.818C82.7938 371.053 82.1499 371.17 81.4226 371.17C80.3544 371.17 79.4946 370.947 78.843 370.5C78.1915 370.049 77.8033 369.422 77.6783 368.619L79.6839 368.426C79.7749 368.82 79.968 369.117 80.2635 369.318C80.5589 369.519 80.9434 369.619 81.4169 369.619C81.9055 369.619 82.2976 369.519 82.593 369.318C82.8923 369.117 83.0419 368.869 83.0419 368.574C83.0419 368.324 82.9453 368.117 82.7521 367.955C82.5627 367.792 82.2673 367.667 81.8658 367.58L80.3771 367.267C79.54 367.093 78.9207 366.799 78.5192 366.386C78.1177 365.97 77.9188 365.443 77.9226 364.807C77.9188 364.269 78.0646 363.803 78.3601 363.409C78.6593 363.011 79.0741 362.705 79.6044 362.489C80.1385 362.269 80.754 362.159 81.451 362.159C82.4737 362.159 83.2786 362.377 83.8658 362.812C84.4567 363.248 84.8222 363.837 84.9624 364.58ZM91.2038 362.273V363.864H86.1868V362.273H91.2038ZM87.4254 360.182H89.4822V368.375C89.4822 368.652 89.5239 368.864 89.6072 369.011C89.6944 369.155 89.808 369.254 89.9482 369.307C90.0883 369.36 90.2436 369.386 90.4141 369.386C90.5429 369.386 90.6603 369.377 90.7663 369.358C90.8762 369.339 90.9595 369.322 91.0163 369.307L91.3629 370.915C91.2531 370.953 91.0959 370.994 90.8913 371.04C90.6906 371.085 90.4444 371.112 90.1527 371.119C89.6375 371.134 89.1735 371.057 88.7607 370.886C88.3478 370.712 88.0201 370.443 87.7777 370.08C87.5391 369.716 87.4216 369.261 87.4254 368.716V360.182ZM92.924 371V362.273H94.9808V371H92.924ZM93.9581 361.034C93.6323 361.034 93.352 360.926 93.1172 360.71C92.8823 360.491 92.7649 360.227 92.7649 359.92C92.7649 359.61 92.8823 359.347 93.1172 359.131C93.352 358.911 93.6323 358.801 93.9581 358.801C94.2876 358.801 94.5679 358.911 94.799 359.131C95.0339 359.347 95.1513 359.61 95.1513 359.92C95.1513 360.227 95.0339 360.491 94.799 360.71C94.5679 360.926 94.2876 361.034 93.9581 361.034ZM99.1527 365.886V371H97.0959V362.273H99.0618V363.756H99.1641C99.3648 363.267 99.6849 362.879 100.124 362.591C100.567 362.303 101.115 362.159 101.766 362.159C102.369 362.159 102.893 362.288 103.34 362.545C103.791 362.803 104.139 363.176 104.386 363.665C104.636 364.153 104.759 364.746 104.755 365.443V371H102.698V365.761C102.698 365.178 102.547 364.722 102.244 364.392C101.944 364.062 101.53 363.898 100.999 363.898C100.639 363.898 100.319 363.977 100.039 364.136C99.7625 364.292 99.5447 364.517 99.3857 364.812C99.2304 365.108 99.1527 365.466 99.1527 365.886ZM110.641 374.455C109.903 374.455 109.268 374.354 108.738 374.153C108.208 373.956 107.781 373.691 107.46 373.358C107.138 373.025 106.914 372.655 106.789 372.25L108.641 371.801C108.725 371.972 108.846 372.14 109.005 372.307C109.164 372.477 109.378 372.617 109.647 372.727C109.92 372.841 110.263 372.898 110.675 372.898C111.259 372.898 111.742 372.756 112.124 372.472C112.507 372.191 112.698 371.729 112.698 371.085V369.432H112.596C112.49 369.644 112.335 369.862 112.13 370.085C111.929 370.309 111.662 370.496 111.329 370.648C110.999 370.799 110.585 370.875 110.085 370.875C109.414 370.875 108.806 370.718 108.261 370.403C107.719 370.085 107.287 369.612 106.965 368.983C106.647 368.35 106.488 367.559 106.488 366.608C106.488 365.65 106.647 364.841 106.965 364.182C107.287 363.519 107.721 363.017 108.266 362.676C108.812 362.331 109.42 362.159 110.09 362.159C110.602 362.159 111.022 362.246 111.352 362.42C111.685 362.591 111.95 362.797 112.147 363.04C112.344 363.278 112.494 363.504 112.596 363.716H112.71V362.273H114.738V371.142C114.738 371.888 114.56 372.506 114.204 372.994C113.848 373.483 113.361 373.848 112.744 374.091C112.126 374.333 111.425 374.455 110.641 374.455ZM110.658 369.261C111.094 369.261 111.465 369.155 111.772 368.943C112.079 368.731 112.312 368.426 112.471 368.028C112.63 367.631 112.71 367.153 112.71 366.597C112.71 366.047 112.63 365.566 112.471 365.153C112.316 364.741 112.085 364.42 111.778 364.193C111.475 363.962 111.102 363.847 110.658 363.847C110.2 363.847 109.817 363.966 109.511 364.205C109.204 364.443 108.973 364.771 108.817 365.188C108.662 365.6 108.585 366.07 108.585 366.597C108.585 367.131 108.662 367.598 108.817 368C108.977 368.398 109.21 368.708 109.516 368.932C109.827 369.152 110.208 369.261 110.658 369.261Z" fill="#24292F"/>
<path d="M24.5 395C24.5 393.067 26.067 391.5 28 391.5H106C107.933 391.5 109.5 393.067 109.5 395V423C109.5 424.933 107.933 426.5 106 426.5H28C26.067 426.5 24.5 424.933 24.5 423V395Z" fill="#E1F8EF"/>
<path d="M24.5 395C24.5 393.067 26.067 391.5 28 391.5H106C107.933 391.5 109.5 393.067 109.5 395V423C109.5 424.933 107.933 426.5 106 426.5H28C26.067 426.5 24.5 424.933 24.5 423V395Z" stroke="#24A26E"/>
<path d="M32.8129 404.912V403.818H40.4492V404.912H37.2475V414H36.0146V404.912H32.8129ZM44.2873 414.159C43.5515 414.159 42.9168 413.997 42.3832 413.672C41.8529 413.344 41.4435 412.886 41.1552 412.3C40.8701 411.71 40.7276 411.024 40.7276 410.241C40.7276 409.459 40.8701 408.77 41.1552 408.173C41.4435 407.573 41.8446 407.106 42.3583 406.771C42.8754 406.433 43.4786 406.264 44.168 406.264C44.5657 406.264 44.9585 406.33 45.3462 406.463C45.734 406.596 46.087 406.811 46.4052 407.109C46.7234 407.404 46.9769 407.795 47.1658 408.283C47.3548 408.77 47.4492 409.37 47.4492 410.082V410.58H41.5629V409.565H46.256C46.256 409.134 46.1699 408.75 45.9975 408.412C45.8285 408.074 45.5865 407.807 45.2717 407.612C44.9601 407.416 44.5922 407.318 44.168 407.318C43.7006 407.318 43.2963 407.434 42.9549 407.666C42.6168 407.895 42.3567 408.193 42.1744 408.561C41.9921 408.929 41.9009 409.323 41.9009 409.744V410.42C41.9009 410.997 42.0004 411.486 42.1992 411.887C42.4014 412.285 42.6815 412.588 43.0394 412.797C43.3974 413.002 43.8133 413.105 44.2873 413.105C44.5955 413.105 44.8739 413.062 45.1225 412.976C45.3744 412.886 45.5915 412.754 45.7738 412.578C45.9561 412.399 46.0969 412.177 46.1964 411.912L47.3299 412.23C47.2106 412.615 47.0101 412.953 46.7283 413.244C46.4466 413.533 46.0986 413.758 45.6843 413.92C45.27 414.08 44.8043 414.159 44.2873 414.159ZM54.6431 408.074L53.5891 408.372C53.5228 408.196 53.4251 408.026 53.2958 407.86C53.1699 407.691 52.9975 407.552 52.7788 407.442C52.56 407.333 52.2799 407.278 51.9386 407.278C51.4712 407.278 51.0818 407.386 50.7702 407.602C50.462 407.814 50.3079 408.084 50.3079 408.412C50.3079 408.704 50.4139 408.934 50.6261 409.103C50.8382 409.272 51.1696 409.413 51.6204 409.526L52.7539 409.804C53.4367 409.97 53.9454 410.223 54.2802 410.565C54.6149 410.903 54.7823 411.339 54.7823 411.872C54.7823 412.31 54.6564 412.701 54.4045 413.045C54.1559 413.39 53.8079 413.662 53.3604 413.861C52.913 414.06 52.3926 414.159 51.7994 414.159C51.0205 414.159 50.3758 413.99 49.8654 413.652C49.355 413.314 49.0318 412.82 48.896 412.17L50.0096 411.892C50.1156 412.303 50.3162 412.611 50.6112 412.817C50.9094 413.022 51.2989 413.125 51.7795 413.125C52.3263 413.125 52.7605 413.009 53.082 412.777C53.4068 412.542 53.5692 412.26 53.5692 411.932C53.5692 411.667 53.4764 411.445 53.2908 411.266C53.1052 411.083 52.8202 410.947 52.4357 410.858L51.163 410.56C50.4637 410.394 49.9499 410.137 49.6218 409.789C49.297 409.438 49.1346 408.999 49.1346 408.472C49.1346 408.041 49.2556 407.66 49.4975 407.328C49.7428 406.997 50.0759 406.737 50.4968 406.548C50.921 406.359 51.4016 406.264 51.9386 406.264C52.6942 406.264 53.2875 406.43 53.7184 406.761C54.1526 407.093 54.4608 407.53 54.6431 408.074ZM59.8695 406.364V407.358H55.9121V406.364H59.8695ZM57.0655 404.534H58.2388V411.812C58.2388 412.144 58.2869 412.393 58.383 412.558C58.4824 412.721 58.6084 412.83 58.7608 412.886C58.9166 412.939 59.0807 412.966 59.253 412.966C59.3823 412.966 59.4883 412.959 59.5712 412.946C59.6541 412.929 59.7203 412.916 59.7701 412.906L60.0087 413.96C59.9292 413.99 59.8181 414.02 59.6756 414.05C59.5331 414.083 59.3525 414.099 59.1337 414.099C58.8023 414.099 58.4775 414.028 58.1593 413.886C57.8444 413.743 57.5826 413.526 57.3738 413.234C57.1683 412.943 57.0655 412.575 57.0655 412.131V404.534ZM65.5719 414V406.364H66.7054V407.557H66.8049C66.964 407.149 67.2208 406.833 67.5755 406.607C67.9301 406.379 68.356 406.264 68.8532 406.264C69.3569 406.264 69.7762 406.379 70.111 406.607C70.449 406.833 70.7125 407.149 70.9015 407.557H70.981C71.1766 407.162 71.4699 406.849 71.861 406.617C72.2521 406.382 72.7211 406.264 73.2679 406.264C73.9507 406.264 74.5092 406.478 74.9434 406.906C75.3775 407.33 75.5946 407.991 75.5946 408.889V414H74.4213V408.889C74.4213 408.326 74.2672 407.923 73.959 407.681C73.6507 407.439 73.2878 407.318 72.8702 407.318C72.3333 407.318 71.9173 407.481 71.6223 407.805C71.3274 408.127 71.1799 408.535 71.1799 409.028V414H69.9867V408.77C69.9867 408.336 69.8458 407.986 69.5641 407.721C69.2824 407.452 68.9194 407.318 68.4753 407.318C68.1704 407.318 67.8854 407.399 67.6202 407.562C67.3584 407.724 67.1462 407.95 66.9838 408.238C66.8248 408.523 66.7452 408.853 66.7452 409.227V414H65.5719ZM80.8422 414.159C80.1528 414.159 79.5479 413.995 79.0275 413.667C78.5105 413.339 78.1061 412.88 77.8145 412.29C77.5261 411.7 77.3819 411.01 77.3819 410.222C77.3819 409.426 77.5261 408.732 77.8145 408.138C78.1061 407.545 78.5105 407.085 79.0275 406.756C79.5479 406.428 80.1528 406.264 80.8422 406.264C81.5315 406.264 82.1348 406.428 82.6518 406.756C83.1722 407.085 83.5765 407.545 83.8649 408.138C84.1565 408.732 84.3024 409.426 84.3024 410.222C84.3024 411.01 84.1565 411.7 83.8649 412.29C83.5765 412.88 83.1722 413.339 82.6518 413.667C82.1348 413.995 81.5315 414.159 80.8422 414.159ZM80.8422 413.105C81.3658 413.105 81.7967 412.971 82.1348 412.702C82.4728 412.434 82.7231 412.081 82.8855 411.643C83.0479 411.206 83.1291 410.732 83.1291 410.222C83.1291 409.711 83.0479 409.236 82.8855 408.795C82.7231 408.354 82.4728 407.998 82.1348 407.726C81.7967 407.454 81.3658 407.318 80.8422 407.318C80.3185 407.318 79.8876 407.454 79.5495 407.726C79.2115 407.998 78.9612 408.354 78.7988 408.795C78.6364 409.236 78.5552 409.711 78.5552 410.222C78.5552 410.732 78.6364 411.206 78.7988 411.643C78.9612 412.081 79.2115 412.434 79.5495 412.702C79.8876 412.971 80.3185 413.105 80.8422 413.105ZM88.9769 414.159C88.3406 414.159 87.7788 413.998 87.2915 413.677C86.8043 413.352 86.4232 412.895 86.1481 412.305C85.873 411.711 85.7354 411.01 85.7354 410.202C85.7354 409.4 85.873 408.704 86.1481 408.114C86.4232 407.524 86.806 407.068 87.2965 406.746C87.7871 406.425 88.3538 406.264 88.9968 406.264C89.494 406.264 89.8867 406.347 90.1751 406.513C90.4667 406.675 90.6888 406.861 90.8413 407.07C90.997 407.275 91.118 407.444 91.2042 407.577H91.3036V403.818H92.4769V414H91.3434V412.827H91.2042C91.118 412.966 90.9954 413.142 90.8363 413.354C90.6772 413.562 90.4502 413.75 90.1552 413.915C89.8602 414.078 89.4674 414.159 88.9769 414.159ZM89.136 413.105C89.6067 413.105 90.0044 412.982 90.3292 412.737C90.654 412.489 90.9009 412.146 91.07 411.708C91.239 411.267 91.3235 410.759 91.3235 410.182C91.3235 409.612 91.2406 409.113 91.0749 408.685C90.9092 408.254 90.6639 407.92 90.3391 407.681C90.0143 407.439 89.6133 407.318 89.136 407.318C88.6388 407.318 88.2246 407.446 87.8931 407.701C87.565 407.953 87.3181 408.296 87.1523 408.73C86.9899 409.161 86.9087 409.645 86.9087 410.182C86.9087 410.725 86.9916 411.219 87.1573 411.663C87.3263 412.104 87.5749 412.455 87.9031 412.717C88.2345 412.976 88.6455 413.105 89.136 413.105ZM97.9904 414.159C97.2546 414.159 96.6199 413.997 96.0863 413.672C95.556 413.344 95.1467 412.886 94.8583 412.3C94.5733 411.71 94.4308 411.024 94.4308 410.241C94.4308 409.459 94.5733 408.77 94.8583 408.173C95.1467 407.573 95.5477 407.106 96.0614 406.771C96.5785 406.433 97.1817 406.264 97.8711 406.264C98.2688 406.264 98.6616 406.33 99.0494 406.463C99.4371 406.596 99.7901 406.811 100.108 407.109C100.426 407.404 100.68 407.795 100.869 408.283C101.058 408.77 101.152 409.37 101.152 410.082V410.58H95.266V409.565H99.9592C99.9592 409.134 99.873 408.75 99.7006 408.412C99.5316 408.074 99.2897 407.807 98.9748 407.612C98.6632 407.416 98.2953 407.318 97.8711 407.318C97.4038 407.318 96.9994 407.434 96.658 407.666C96.32 407.895 96.0598 408.193 95.8775 408.561C95.6952 408.929 95.604 409.323 95.604 409.744V410.42C95.604 410.997 95.7035 411.486 95.9023 411.887C96.1045 412.285 96.3846 412.588 96.7425 412.797C97.1005 413.002 97.5165 413.105 97.9904 413.105C98.2987 413.105 98.5771 413.062 98.8256 412.976C99.0775 412.886 99.2946 412.754 99.4769 412.578C99.6592 412.399 99.8001 412.177 99.8995 411.912L101.033 412.23C100.914 412.615 100.713 412.953 100.431 413.244C100.15 413.533 99.8017 413.758 99.3874 413.92C98.9731 414.08 98.5075 414.159 97.9904 414.159Z" fill="#1F895D"/>
<path d="M114.5 395C114.5 393.067 116.067 391.5 118 391.5H198C199.933 391.5 201.5 393.067 201.5 395V423C201.5 424.933 199.933 426.5 198 426.5H118C116.067 426.5 114.5 424.933 114.5 423V395Z" fill="#F9FAFB"/>
<path d="M114.5 395C114.5 393.067 116.067 391.5 118 391.5H198C199.933 391.5 201.5 393.067 201.5 395V423C201.5 424.933 199.933 426.5 198 426.5H118C116.067 426.5 114.5 424.933 114.5 423V395Z" stroke="#D4DBE2"/>
<path d="M123.324 414V403.818H126.764C127.563 403.818 128.216 403.962 128.723 404.251C129.233 404.536 129.611 404.922 129.856 405.409C130.102 405.896 130.224 406.44 130.224 407.04C130.224 407.64 130.102 408.185 129.856 408.675C129.614 409.166 129.24 409.557 128.733 409.849C128.226 410.137 127.576 410.281 126.784 410.281H124.318V409.188H126.744C127.291 409.188 127.73 409.093 128.062 408.904C128.393 408.715 128.633 408.46 128.783 408.138C128.935 407.814 129.011 407.447 129.011 407.04C129.011 406.632 128.935 406.268 128.783 405.946C128.633 405.625 128.391 405.373 128.057 405.19C127.722 405.005 127.278 404.912 126.724 404.912H124.557V414H123.324ZM132.051 414V406.364H133.185V407.517H133.264C133.404 407.139 133.656 406.833 134.02 406.597C134.385 406.362 134.796 406.244 135.253 406.244C135.339 406.244 135.447 406.246 135.576 406.249C135.706 406.253 135.803 406.258 135.87 406.264V407.457C135.83 407.447 135.739 407.433 135.596 407.413C135.457 407.389 135.309 407.378 135.154 407.378C134.782 407.378 134.451 407.456 134.159 407.612C133.871 407.764 133.642 407.976 133.473 408.248C133.308 408.516 133.225 408.823 133.225 409.168V414H132.051ZM140.13 414.159C139.441 414.159 138.836 413.995 138.316 413.667C137.799 413.339 137.394 412.88 137.103 412.29C136.814 411.7 136.67 411.01 136.67 410.222C136.67 409.426 136.814 408.732 137.103 408.138C137.394 407.545 137.799 407.085 138.316 406.756C138.836 406.428 139.441 406.264 140.13 406.264C140.82 406.264 141.423 406.428 141.94 406.756C142.46 407.085 142.865 407.545 143.153 408.138C143.445 408.732 143.59 409.426 143.59 410.222C143.59 411.01 143.445 411.7 143.153 412.29C142.865 412.88 142.46 413.339 141.94 413.667C141.423 413.995 140.82 414.159 140.13 414.159ZM140.13 413.105C140.654 413.105 141.085 412.971 141.423 412.702C141.761 412.434 142.011 412.081 142.174 411.643C142.336 411.206 142.417 410.732 142.417 410.222C142.417 409.711 142.336 409.236 142.174 408.795C142.011 408.354 141.761 407.998 141.423 407.726C141.085 407.454 140.654 407.318 140.13 407.318C139.607 407.318 139.176 407.454 138.838 407.726C138.5 407.998 138.249 408.354 138.087 408.795C137.925 409.236 137.843 409.711 137.843 410.222C137.843 410.732 137.925 411.206 138.087 411.643C138.249 412.081 138.5 412.434 138.838 412.702C139.176 412.971 139.607 413.105 140.13 413.105ZM148.265 414.159C147.629 414.159 147.067 413.998 146.58 413.677C146.092 413.352 145.711 412.895 145.436 412.305C145.161 411.711 145.024 411.01 145.024 410.202C145.024 409.4 145.161 408.704 145.436 408.114C145.711 407.524 146.094 407.068 146.585 406.746C147.075 406.425 147.642 406.264 148.285 406.264C148.782 406.264 149.175 406.347 149.463 406.513C149.755 406.675 149.977 406.861 150.129 407.07C150.285 407.275 150.406 407.444 150.492 407.577H150.592V403.818H151.765V414H150.631V412.827H150.492C150.406 412.966 150.283 413.142 150.124 413.354C149.965 413.562 149.738 413.75 149.443 413.915C149.148 414.078 148.756 414.159 148.265 414.159ZM148.424 413.105C148.895 413.105 149.292 412.982 149.617 412.737C149.942 412.489 150.189 412.146 150.358 411.708C150.527 411.267 150.612 410.759 150.612 410.182C150.612 409.612 150.529 409.113 150.363 408.685C150.197 408.254 149.952 407.92 149.627 407.681C149.302 407.439 148.901 407.318 148.424 407.318C147.927 407.318 147.513 407.446 147.181 407.701C146.853 407.953 146.606 408.296 146.44 408.73C146.278 409.161 146.197 409.645 146.197 410.182C146.197 410.725 146.28 411.219 146.445 411.663C146.614 412.104 146.863 412.455 147.191 412.717C147.523 412.976 147.934 413.105 148.424 413.105ZM158.889 410.878V406.364H160.063V414H158.889V412.707H158.81C158.631 413.095 158.352 413.425 157.975 413.697C157.597 413.965 157.119 414.099 156.543 414.099C156.065 414.099 155.641 413.995 155.27 413.786C154.899 413.574 154.607 413.256 154.395 412.832C154.183 412.404 154.077 411.866 154.077 411.216V406.364H155.25V411.136C155.25 411.693 155.406 412.137 155.717 412.469C156.032 412.8 156.433 412.966 156.921 412.966C157.212 412.966 157.509 412.891 157.81 412.742C158.115 412.593 158.371 412.364 158.576 412.056C158.785 411.748 158.889 411.355 158.889 410.878ZM165.314 414.159C164.598 414.159 163.981 413.99 163.464 413.652C162.947 413.314 162.55 412.848 162.271 412.255C161.993 411.662 161.854 410.984 161.854 410.222C161.854 409.446 161.996 408.762 162.281 408.168C162.57 407.572 162.971 407.106 163.484 406.771C164.001 406.433 164.605 406.264 165.294 406.264C165.831 406.264 166.315 406.364 166.746 406.562C167.177 406.761 167.53 407.04 167.805 407.398C168.08 407.756 168.25 408.173 168.317 408.651H167.143C167.054 408.303 166.855 407.994 166.547 407.726C166.242 407.454 165.831 407.318 165.314 407.318C164.856 407.318 164.455 407.437 164.111 407.676C163.769 407.911 163.503 408.245 163.31 408.675C163.121 409.103 163.027 409.605 163.027 410.182C163.027 410.772 163.12 411.286 163.305 411.723C163.494 412.161 163.759 412.5 164.101 412.742C164.445 412.984 164.85 413.105 165.314 413.105C165.619 413.105 165.896 413.052 166.144 412.946C166.393 412.84 166.603 412.688 166.775 412.489C166.948 412.29 167.07 412.051 167.143 411.773H168.317C168.25 412.223 168.086 412.629 167.824 412.991C167.566 413.349 167.223 413.634 166.795 413.846C166.371 414.055 165.877 414.159 165.314 414.159ZM173.353 406.364V407.358H169.396V406.364H173.353ZM170.549 404.534H171.722V411.812C171.722 412.144 171.77 412.393 171.866 412.558C171.966 412.721 172.092 412.83 172.244 412.886C172.4 412.939 172.564 412.966 172.736 412.966C172.866 412.966 172.972 412.959 173.055 412.946C173.137 412.929 173.204 412.916 173.253 412.906L173.492 413.96C173.413 413.99 173.302 414.02 173.159 414.05C173.016 414.083 172.836 414.099 172.617 414.099C172.286 414.099 171.961 414.028 171.643 413.886C171.328 413.743 171.066 413.526 170.857 413.234C170.652 412.943 170.549 412.575 170.549 412.131V404.534ZM175.118 414V406.364H176.291V414H175.118ZM175.714 405.091C175.486 405.091 175.289 405.013 175.123 404.857C174.96 404.701 174.879 404.514 174.879 404.295C174.879 404.077 174.96 403.889 175.123 403.734C175.289 403.578 175.486 403.5 175.714 403.5C175.943 403.5 176.139 403.578 176.301 403.734C176.467 403.889 176.55 404.077 176.55 404.295C176.55 404.514 176.467 404.701 176.301 404.857C176.139 405.013 175.943 405.091 175.714 405.091ZM181.542 414.159C180.853 414.159 180.248 413.995 179.728 413.667C179.211 413.339 178.806 412.88 178.515 412.29C178.226 411.7 178.082 411.01 178.082 410.222C178.082 409.426 178.226 408.732 178.515 408.138C178.806 407.545 179.211 407.085 179.728 406.756C180.248 406.428 180.853 406.264 181.542 406.264C182.232 406.264 182.835 406.428 183.352 406.756C183.872 407.085 184.277 407.545 184.565 408.138C184.857 408.732 185.003 409.426 185.003 410.222C185.003 411.01 184.857 411.7 184.565 412.29C184.277 412.88 183.872 413.339 183.352 413.667C182.835 413.995 182.232 414.159 181.542 414.159ZM181.542 413.105C182.066 413.105 182.497 412.971 182.835 412.702C183.173 412.434 183.423 412.081 183.586 411.643C183.748 411.206 183.829 410.732 183.829 410.222C183.829 409.711 183.748 409.236 183.586 408.795C183.423 408.354 183.173 407.998 182.835 407.726C182.497 407.454 182.066 407.318 181.542 407.318C181.019 407.318 180.588 407.454 180.25 407.726C179.912 407.998 179.661 408.354 179.499 408.795C179.337 409.236 179.255 409.711 179.255 410.222C179.255 410.732 179.337 411.206 179.499 411.643C179.661 412.081 179.912 412.434 180.25 412.702C180.588 412.971 181.019 413.105 181.542 413.105ZM187.967 409.406V414H186.794V406.364H187.927V407.557H188.027C188.206 407.169 188.477 406.857 188.842 406.622C189.206 406.384 189.677 406.264 190.254 406.264C190.771 406.264 191.223 406.37 191.611 406.582C191.999 406.791 192.3 407.109 192.516 407.537C192.731 407.961 192.839 408.498 192.839 409.148V414H191.666V409.227C191.666 408.627 191.51 408.16 191.198 407.825C190.887 407.487 190.459 407.318 189.916 407.318C189.541 407.318 189.206 407.399 188.911 407.562C188.62 407.724 188.389 407.961 188.22 408.273C188.051 408.584 187.967 408.962 187.967 409.406Z" fill="#24292F"/>
<path d="M348.192 391.942L341.942 398.192C341.884 398.25 341.815 398.296 341.739 398.328C341.663 398.359 341.582 398.375 341.5 398.375C341.418 398.375 341.337 398.359 341.261 398.328C341.185 398.296 341.116 398.25 341.058 398.192C341 398.134 340.954 398.065 340.922 397.989C340.891 397.913 340.875 397.832 340.875 397.75C340.875 397.668 340.891 397.587 340.922 397.511C340.954 397.435 341 397.366 341.058 397.308L346.866 391.5L341.058 385.692C340.941 385.575 340.875 385.416 340.875 385.25C340.875 385.084 340.941 384.925 341.058 384.808C341.175 384.691 341.334 384.625 341.5 384.625C341.666 384.625 341.825 384.691 341.942 384.808L348.192 391.058C348.25 391.116 348.296 391.185 348.328 391.261C348.359 391.337 348.375 391.418 348.375 391.5C348.375 391.582 348.359 391.663 348.328 391.739C348.296 391.815 348.25 391.884 348.192 391.942Z" fill="#24292F"/>
</g>
<path d="M0.5 7.99999C0.5 3.85786 3.85786 0.5 8 0.5H370C374.142 0.5 377.5 3.85786 377.5 8V443C377.5 447.142 374.142 450.5 370 450.5H7.99999C3.85786 450.5 0.5 447.142 0.5 443V7.99999Z" stroke="#D4DBE2"/>
<defs>
<clipPath id="clip0_15_2636">
<path d="M0 7.99999C0 3.58171 3.58172 0 8 0H370C374.418 0 378 3.58172 378 8V443C378 447.418 374.418 451 370 451H7.99999C3.58171 451 0 447.418 0 443V7.99999Z" fill="white"/>
</clipPath>
</defs>
</svg>
