<svg width="40" height="40" viewBox="0 0 40 40" fill="none" xmlns="http://www.w3.org/2000/svg">
<path d="M34.5587 9.88045C28.0856 4.28492 20.075 6.24593 17.3545 16.3082H16.604V14.6982C16.5767 10.292 12.6668 6.79368 8.14258 7.50182C4.46267 8.07681 1.77839 11.5267 2.01444 15.2429C2.13246 17.1313 2.92231 18.8533 4.26596 20.1334C5.9758 21.7584 8.39075 22.5846 11.1113 22.4515C11.4684 22.4333 11.8164 22.4061 12.1614 22.3667V24.4094C12.1614 28.162 14.4311 31.6603 17.9809 32.8708C18.9402 33.1977 19.9086 33.355 20.8589 33.355C23.5825 33.355 26.1457 32.0538 27.8132 29.6994L37.4639 16.0752C38.3022 14.8949 38.1418 13.2759 37.0917 12.2803L34.5618 9.88347L34.5587 9.88045ZM12.1614 17.8818C11.759 17.9454 11.3353 17.9878 10.8934 18.0089C9.44689 18.0876 8.13956 17.6821 7.33458 16.9134C6.75656 16.3627 6.45697 15.6454 6.44486 14.789C6.43276 13.639 7.0955 12.5133 8.16377 12.0866C10.2095 11.2665 12.1614 12.7796 12.1614 14.7436V17.8849V17.8818ZM24.1848 27.127C22.8834 28.9639 20.9194 29.1365 19.5152 28.6916C18.111 28.2437 16.607 26.9636 16.607 24.7151V21.0927C19.0129 19.8913 20.8982 17.906 22.2357 15.1552C23.0166 13.5513 24.3785 11.557 26.4272 11.1726C28.0038 10.8761 29.8679 11.5933 31.5173 13.1276L33.0636 14.5923L24.1817 27.1301L24.1848 27.127Z" fill="#2392A4"/>
</svg>
